<?xml version="1.0" encoding="utf-8"?>
<!-- Generator: Adobe Illustrator 12.0.1, SVG Export Plug-In . SVG Version: 6.00 Build 51448)  -->
<!DOCTYPE svg PUBLIC "-//W3C//DTD SVG 1.0//EN" "http://www.w3.org/TR/2001/REC-SVG-20010904/DTD/svg10.dtd" [
	<!ENTITY ns_extend "http://ns.adobe.com/Extensibility/1.0/">
	<!ENTITY ns_ai "http://ns.adobe.com/AdobeIllustrator/10.0/">
	<!ENTITY ns_graphs "http://ns.adobe.com/Graphs/1.0/">
	<!ENTITY ns_vars "http://ns.adobe.com/Variables/1.0/">
	<!ENTITY ns_imrep "http://ns.adobe.com/ImageReplacement/1.0/">
	<!ENTITY ns_sfw "http://ns.adobe.com/SaveForWeb/1.0/">
	<!ENTITY ns_custom "http://ns.adobe.com/GenericCustomNamespace/1.0/">
	<!ENTITY ns_adobe_xpath "http://ns.adobe.com/XPath/1.0/">
	<!ENTITY ns_svg "http://www.w3.org/2000/svg">
	<!ENTITY ns_xlink "http://www.w3.org/1999/xlink">
]>
<svg  version="1.0" id="Ebene_3" xmlns:x="&ns_extend;" xmlns:i="&ns_ai;" xmlns:graph="&ns_graphs;"
	 xmlns="&ns_svg;" xmlns:xlink="&ns_xlink;" width="194.988" height="199.522" viewBox="0 0 194.988 199.522"
	 overflow="visible" enable-background="new 0 0 194.988 199.522" xml:space="preserve">
<metadata><?xpacket begin="﻿" id="W5M0MpCehiHzreSzNTczkc9d"?>
<x:xmpmeta xmlns:x="adobe:ns:meta/" x:xmptk="3.1.1-111">
   <rdf:RDF xmlns:rdf="http://www.w3.org/1999/02/22-rdf-syntax-ns#">
      <rdf:Description rdf:about=""
            xmlns:dc="http://purl.org/dc/elements/1.1/">
         <dc:format>image/svg+xml</dc:format>
         <dc:title>
            <rdf:Alt>
               <rdf:li xml:lang="x-default">saveconfig</rdf:li>
            </rdf:Alt>
         </dc:title>
      </rdf:Description>
      <rdf:Description rdf:about=""
            xmlns:xap="http://ns.adobe.com/xap/1.0/"
            xmlns:xapGImg="http://ns.adobe.com/xap/1.0/g/img/">
         <xap:CreatorTool>Adobe Illustrator CS2</xap:CreatorTool>
         <xap:CreateDate>2009-11-13T12:34:50+01:00</xap:CreateDate>
         <xap:ModifyDate>2009-11-13T12:34:50+01:00</xap:ModifyDate>
         <xap:MetadataDate>2009-11-13T12:34:50+01:00</xap:MetadataDate>
         <xap:Thumbnails>
            <rdf:Alt>
               <rdf:li rdf:parseType="Resource">
                  <xapGImg:width>252</xapGImg:width>
                  <xapGImg:height>256</xapGImg:height>
                  <xapGImg:format>JPEG</xapGImg:format>
                  <xapGImg:image>/9j/4AAQSkZJRgABAgEASABIAAD/7QAsUGhvdG9zaG9wIDMuMAA4QklNA+0AAAAAABAASAAAAAEA&#xA;AQBIAAAAAQAB/+4ADkFkb2JlAGTAAAAAAf/bAIQABgQEBAUEBgUFBgkGBQYJCwgGBggLDAoKCwoK&#xA;DBAMDAwMDAwQDA4PEA8ODBMTFBQTExwbGxscHx8fHx8fHx8fHwEHBwcNDA0YEBAYGhURFRofHx8f&#xA;Hx8fHx8fHx8fHx8fHx8fHx8fHx8fHx8fHx8fHx8fHx8fHx8fHx8fHx8fHx8f/8AAEQgBAAD8AwER&#xA;AAIRAQMRAf/EAaIAAAAHAQEBAQEAAAAAAAAAAAQFAwIGAQAHCAkKCwEAAgIDAQEBAQEAAAAAAAAA&#xA;AQACAwQFBgcICQoLEAACAQMDAgQCBgcDBAIGAnMBAgMRBAAFIRIxQVEGE2EicYEUMpGhBxWxQiPB&#xA;UtHhMxZi8CRygvElQzRTkqKyY3PCNUQnk6OzNhdUZHTD0uIIJoMJChgZhJRFRqS0VtNVKBry4/PE&#xA;1OT0ZXWFlaW1xdXl9WZ2hpamtsbW5vY3R1dnd4eXp7fH1+f3OEhYaHiImKi4yNjo+Ck5SVlpeYmZ&#xA;qbnJ2en5KjpKWmp6ipqqusra6voRAAICAQIDBQUEBQYECAMDbQEAAhEDBCESMUEFURNhIgZxgZEy&#xA;obHwFMHR4SNCFVJicvEzJDRDghaSUyWiY7LCB3PSNeJEgxdUkwgJChgZJjZFGidkdFU38qOzwygp&#xA;0+PzhJSktMTU5PRldYWVpbXF1eX1RlZmdoaWprbG1ub2R1dnd4eXp7fH1+f3OEhYaHiImKi4yNjo&#xA;+DlJWWl5iZmpucnZ6fkqOkpaanqKmqq6ytrq+v/aAAwDAQACEQMRAD8A9U4q7FXYq7FUj89/8oP5&#xA;i/7Zl5/1DvkMn0n3NOo/u5f1T9z5S8s+UdV8xvcJp5iBtgpk9Viuz1ApQN/LmsjEl5vHiM+Sm3lj&#xA;UlYqTHVSQfiPb6Mi1kLf8Naj4x/8Ef6Y2h3+GtR8Y/8Agj/TG1d/hrUfGP8A4I/0xtXf4a1Hxj/4&#xA;I/0xtVO40G+gheZynBBU0Jr+rFXtH/OM/wDvDr//ABltv+IyZm6Xq7nsrlL4Pa8y3bOxV2KuxV2K&#xA;uxV2KuxV2KuxV2KuxV2KuxV2KuxV2KuxV2KuxV2KuxV2KpH57/5QfzF/2zLz/qHfIZPpPuadR/dy&#xA;/qn7ngn5I/71at/qQ/rfMDE6PR9UJP8A38n+sf15QXElzWYodirsVdiqD1f/AI5lx/qYq9G/5xn/&#xA;AN4df/4y23/EZMztL1dx2Vyl8HteZbtnYq7FXYq7FXYq7FXYq7FXYq7FXYq7FXYq7FXYq7FXYq7F&#xA;XYq7FXYq7FUj89/8oP5i/wC2Zef9Q75DJ9J9zTqP7uX9U/c8E/JH/erVv9SH9b5gYnR6PqhJ/wC/&#xA;k/1j+vKC4kuazFDsVdirsVQer/8AHMuP9TFXo3/OM/8AvDr/APxltv8AiMmZ2l6u47K5S+D2vMt2&#xA;zsVdirsVdirsVdirsVdirsVdirsVdirsVdirsVdirsVdirsVdirsVdiqR+e/+UH8xf8AbMvP+od8&#xA;hk+k+5p1H93L+qfueCfkj/vVq3+pD+t8wMTo9H1Qk/8Afyf6x/XlBcSXNZih2KuxV2KoPV/+OZcf&#xA;6mKvRv8AnGf/AHh1/wD4y23/ABGTM7S9XcdlcpfB7XmW7Z2KuxV2KuxV2KuxV2KuxV2KuxV2KuxV&#xA;2KuxV2KuxV2KuxV2KuxV2KuxVI/Pf/KD+Yv+2Zef9Q75DJ9J9zTqP7uX9U/c8E/JH/erVv8AUh/W&#xA;+YGJ0ej6oSf+/k/1j+vKC4kuazFDsVdirsVQer/8cy4/1MVejf8AOM/+8Ov/APGW2/4jJmdperuO&#xA;yuUvg9rzLds7FXYq7FXYq7FXYq7FXYq7FXYq7FXYq7FXYq7FXYq7FXYq7FXYq7FXYqkfnv8A5Qfz&#xA;F/2zLz/qHfIZPpPuadR/dy/qn7ngn5I/71at/qQ/rfMDE6PR9UJP/fyf6x/XlBcSXNZih2KuxV2K&#xA;oPV/+OZcf6mKvRv+cZ/94df/AOMtt/xGTM7S9XcdlcpfB7XmW7Z2KuxV2KuxV2KuxV2KuxV2KuxV&#xA;2KuxV2KuxV2KuxV2KuxV2KuxV2KuxVI/Pf8Ayg/mL/tmXn/UO+QyfSfc06j+7l/VP3PBPyR/3q1b&#xA;/Uh/W+YGJ0ej6oSf+/k/1j+vKC4kuazFDsVdirsVQer/APHMuP8AUxV6N/zjP/vDr/8Axltv+IyZ&#xA;naXq7jsrlL4Pa8y3bOxV2KuxV2KuxV2KuxV2KuxV2KuxV2KuxV2KuxV2KuxV2KuxV2KuxV2KpH57&#xA;/wCUH8xf9sy8/wCod8hk+k+5p1H93L+qfueCfkj/AL1at/qQ/rfMDE6PR9UJP/fyf6x/XlBcSXNZ&#xA;ih2KuxV2KoPV/wDjmXH+pir0b/nGf/eHX/8AjLbf8RkzO0vV3HZXKXwe15lu2dirsVdirsVdirsV&#xA;dirsVdirsVdirsVdirsVdirsVdirsVdirsVdirsVSPz3/wAoP5i/7Zl5/wBQ75DJ9J9zTqP7uX9U&#xA;/c8E/JH/AHq1b/Uh/W+YGJ0ej6oSf+/k/wBY/ryguJLmsxQ7FXYq7FUHq/8AxzLj/UxV6N/zjOQL&#xA;HX67fvbb/iMmZ2k6u47K5S+D2vMt2zsVdirsVdirsVdirsVdirsVdirsVdirsVdirsVdirsVdirs&#xA;VdirsVdiqR+e/wDlB/MX/bMvP+od8hk+k+5p1H93L+qfueCfkj/vVq3+pD+t8wMTo9H1Qk/9/J/r&#xA;H9eUFxJc1mKHYq7FVryJGvJzQZbiwyyS4YiyqBuZvraG1ijZzL8IAFWNewAzdYOxeuQ/AfrSBbI9&#xA;L/Kjzi+jXN39VNlaRRtcfV52KySlFJHGLc8qdOdM2OOeDEeGA/HvcyGiyGJNUHpf5J+aJNS0KbSr&#xA;qUyXWmsPTLEljBJ9nc9eDAj2FMxtdi4ZcQ5F2PZ+bijwnmEJ+eXmaa1sLXQbSUpLe1luwhoxhX4V&#xA;Q07O1f8AgcnoMVkyPRh2jmoCI6sah8l/mn5ThjvdHlkkidFkmt7ZufFiASr27ijkHaoU5ec+HJtL&#xA;8fFxxp8+IXH8fBONC/PSaGT6r5l04pIh4vPbAqwI2+OFz99G+jKsmgveBbcfaRG0w9O0PzDo+u2f&#xA;1zSrlbmAHixFQytSvFlYBgfmM1+THKBqQdljyxmLibTHINjsVdirsVdirsVdirsVdirsVdirsVdi&#xA;rsVdirsVdirsVSPz3/yg/mL/ALZl5/1DvkMn0n3NOo/u5f1T9zwT8kf96tW/1If1vmBidHo+qEn/&#xA;AL+T/WP68oLiS5rMUOxV2KoLUlJRGHRSQfpzediZAJSj1NfZ/akPevy5h8oQeWbHUtNs44bqaKlw&#xA;4HOb1V+GQc2JYDkDQVG2X6qU+Mgl6LRwhwCUQyKbVpWqIwEHj1OY1ObTyV/yp82trV7c6BeRWVpJ&#xA;IfTk9eSJwj0fgfTUnip2+jNpHWQ4QJCy6aegyCZMDQRuiflN5oi8z2WpeYbuG8s7RxLLJ60krn0g&#xA;WRf3iqePOlcGTWQ4CIiinFoZ8YMzYD0ddXuVkZqhlJrwPbNbTuKYx+Zt55ak8rXd1qFhHLqAURWU&#xA;jD4xK+y8ZF4t8O7U6bZlaTi4wAdnC10YjGSRv0Qv5EaPPa6Be6nJULqMqrCp6cLfkvIfNnYfRlna&#xA;E7kB3NHZuMiBl3vTc17snYq7FXYq7FXYq7FXYq7FXYq7FXYq7FXYq7FXYq7FXYqkfnv/AJQfzF/2&#xA;zLz/AKh3yGT6T7mnUf3cv6p+54J+SP8AvVq3+pD+t8wMTo9H1drdqbbVLiOlFLF0/wBVt/7MpkN3&#xA;FmKKBwMVruEQsegFTlmLGZyERzKoJdSPL4k+H265vp9hivTLdNLp7pZkEUSl3kIAWm9a7ADxyOh7&#xA;MyY8nFM1w/b+xQHsn5feVNc8v6CzamRGLyQSpZ/tQkrT4z4uANu1PHLtXmjOW3R6HQYZQj6urIzJ&#xA;mK7BfFeTQ19JyvLrT2xpadJqN06FGlJVtiMaRSHMmFLFfPnlbWPMVlCmmN6ktpzlNpsPU2AqGJpy&#xA;UdB75laXNGB36uBr9PLJEcPTohPJf5vWGieXxpOsWcq3WnD0rdYEALgE7SBivFlP2j3+eXZ9EZy4&#xA;onm4en1whDhkNwhbj89fMb3a3NvpsEemK6q8Tc3Y9yvrfCoYgbfD9+SHZ8Kondie0p3YHpeyaRqd&#xA;rqumWuo2prBdRrKleoDDofcHY5q5wMSQejtoTEogjqi8izdirsVdirsVdirsVdirsVdirsVdirsV&#xA;dirsVdiqR+e/+UH8xf8AbMvP+od8hk+k+5p1H93L+qfueCfkj/vVq3+pD+t8wMTo9H1TvzhZco0u&#xA;1G8Z4Sf6pO33H9eQmGnKOrFsraUHqMtEEY6tufkM3fYuDimZn+H70h7v5e8paTpfkSy0/VbGK7mn&#xA;/f3EcqgkSyirbndSiALUeGZGbPI5CYl6PT6aIxiMgh9A8ieSNM11dYgSWOSIFobSY+rFHJ1Doacq&#xA;r25HrhnqpyjwlYaGEJcQTvUNSkupP5Yl+wn8T75jgOaAgzJhSsaUKCSaAdScaVpZA45KQynoRuMN&#xA;K74jiq+J5YpBJGxV13BGBUNdeUPJOp6mda1O0L3rACa2QlYZHH+7Cq0+I96tT2y6OoyRjwg7OHPR&#xA;Y5T4iF/mfSrTXPLN1odnZxWypGZdOiiUKFni+JAAAFHMVXp3wYcpjMSJ96dRpxLGYj4JJ+RPmL1t&#xA;Pu9Anb97Zsbi2U9fSkNJFH+q+/8AssyO0MVES73D7Ny2DA9Hqua52bsVdirsVdirsVdirsVdirsV&#xA;dirsVdirsVdirsVSPz3/AMoP5i/7Zl5/1DvkMn0n3NOo/u5f1T9zwT8kf96tW/1If1vmBidHo+rO&#xA;Lu3juIZYJPsSAqfpwFiRbz24gkt55IZBR42Kn6MpcUil3lOPS7nzjY/pa4jttPimDzPKaIRF8SoT&#xA;0+JgAa51umxnHphw7ki/m5GmETMcR2e8axqMV3cKbeRZYEX4JEIZWJ3JBH3ZrhGub1ENxaAq2SZN&#xA;UOKsa83eaJdLMOn6dEbnWLyggiA5cQxoDxG5JOyjMnT4OPc/SHC1eq8P0x3mVTTfya1HVEW7816v&#xA;M1w/xG1gIPp17c2DID7KtMnLWxjtAOKNDKe+SRtff/ktc6epuvK2sTw3SCqw3BFHI7epGEH3oRjH&#xA;WiW0xsk6Aw3xyIKj5R80Xd7cz6NrMX1bW7OokQjjzC7E06ch7bEbjIajAIjij9JcjSaozJhPaYZW&#xA;EzFc5cExVTuL21sI/rVzOlvHGQfVkYKARv1OGMSdgxnMRFk0Hl+m6vYW/wCbdte+X5fVsr68RGAV&#xA;lFLohZloQNlZyRt2GbWUCcFS5gfc6CMwNRcORP3voLNK712KuxV2KuxV2KuxV2KuxV2KuxV2KuxV&#xA;2KuxV2KpH57/AOUH8xf9sy8/6h3yGT6T7mnUf3cv6p+54J+SP+9Wrf6kP63zAxOj0fVnjfaPzwIL&#xA;G/NenEhb6MdKJNTw/Zb+GQkGnJHqxGazilJb7LeIzO0vaWTCK5x7mpOfy7/SR832Wm21w6xzM/qR&#xA;BiEYJGz7ruP2c388scuDxKc7QZJDIADs9jaJlYqwoymhHuM1j0jgmKsW/LW0TVvzC8waxOvNtOb0&#xA;Lav7JdmjVh78Ij9+ZupPDijEdXU6cceecj0etZrnZOxV5P8AmxaR6b5u8u69bgJPPL6FzTYuI2UC&#xA;vzSQr8qZsdIeLHKJdbqxwZYTHey8JmC7VsJiryLzHpb61+aB0Wa5kSGeWKNHPx+mHhVzxUkDqc2+&#xA;GfBh4qdDqYGeo4SfxT2Dyv8Al35X8uMs1lbmS9UEfXZzzl3FDx6Kv+xAzW5dTOfPk7LDpYY+Q3ZL&#xA;mO5LsVdirsVdirsVdirsVdirsVdirsVUrq7tLSBri7mjt4E+3LKwRB82YgDATSDIAWUmfz/5FXr5&#xA;h03fwu4T+pjkfFj3hpOpx/zh81v/ACsLyJ/1MGn/APSTF/zVg8WPev5rH/ODv+VheRP+pg0//pJi&#xA;/wCasfFj3r+ax/zgk3nPz15LufJ+u21vrljNcT6fdxwxJcRszu8DhVUBqkkmgyM8kTE7tWfUYzjk&#xA;BIci8h/JH/erVv8AUh/W+YeJ1Oj6s8b7R+eBBWSxpLG0cg5I4Ksp7g4oebavIllfzWkR9UxNxDfw&#xA;+Y75stJ2Scg4pGo/a45juy78svJXmt/Mthrstkbaxgcu8tx+7LKyFfgQ/Gdm2NKe+bXLLHjxeHEu&#xA;w0WmnxiVbPUZ0/0iTv8AG2/05rnfhaEwqwby7qlv5R/MnUoNSdbfTdZHqx3UhCxqxYurMx2Chi6n&#xA;w+WZ2QeJhBHOLqIy8HOQfpk9H/x35H/6mLTP+ky3/wCa81XiR7w535jH/Oj8w7/Hfkf/AKmLTP8A&#xA;pMt/+a8fEj3hfzGP+dH5h535y1a183+fNF0rS5Uu7DTT9YuLmFg8bVKu9GWqkBUVa+Jpm1wDw8Rk&#xA;f4uTg5ZDNmjGO4juz0JmA7ZcExV5j5x8oecIvNEvmXRgsrho5IfRIMsZjjVKlHFG+z2r8s2Wnz4+&#xA;Dgk6jVabL4hyRTXyl+cepPqlvo3mSy9OeaRYBdRq0bq7HivqQkdydyKU8Mhm0QrigU4NfLi4Zh61&#xA;mtdo7FXYq7FXYq7FXYq7FXYq7FXYq7FXyx5q1/XvzH85taWsv+grI66fAzERRwpX96wFfiYbk7ns&#xA;O2a3JMzk85myyzzocuiP/wCVJXIFW1eMf88T/wA14+F5p/J+bv8AlSk3/V4j/wCRJ/5rx8LzR+U/&#xA;pO/5UpN/1eI/+RJ/5rx8LzX8p/Sd/wAqUm/6vEf/ACJP/NePhea/lP6TKfIvkhvLEt473yXX1pUU&#xA;BU4ceBY92b+bJwjTfhxCF7po32j88raC1ihhzXf+GvP9pqzqHtmlEzggN8ElUlpX9oVJH0Z0ujl4&#xA;2n4eo2/UuKfBkEnt93czzOwMnKI7oF+yVO6nbrUb5rwHpRSgEwsmwmKEn80eU9P8xWIt7n93NHVr&#xA;e5UfEjH9anuMuw5jjNho1GnjljRePa1+TvmW3mYw2ouo67TWzLv80ajfhksmn02U39BdJk7PyROw&#xA;tZpH5PeZ7mZfUs/q8dd5bl1Cj/YLVj92OPS6bEb3mUY+z8pPKnsnlHyZp/luzaOE+tdy0+sXTCha&#xA;nQKN+KjwwZ85yHyd1ptNHENubIAmUOS2ExVsqACSaAbknpTFDyHy1G3nP80zfmrWFlJ9YFegityB&#xA;CP8AZPxJHzza5P3WGupdJj/fZ+LoP0cnvGad3SSecPNdj5X0ZtTu0aWriKGFKAvIwJC1PQUUknLc&#xA;OE5JUGnPnGOPEXnX/Qwf/ag/6e/+vGZ38m/0vs/a6/8AlT+j9v7Hf9DB/wDag/6e/wDrxj/Jv9L7&#xA;P2r/ACp/R+39jv8AoYP/ALUH/T3/ANeMf5N/pfZ+1f5U/o/b+x6B5J85WPmvSmvbeJreWJ/TuLdj&#xA;yKNSoowA5Ag7GmYefAccqLn6fUDLGwyDKG92KuxV2KuxV2Kvk20a6/L7z9cW99CzR27vBIP2nt3N&#xA;UkTtuOLfhmsrgk81vhyEF7H61tqljDe2MomgdeUbL0YH+I8MtkLFhy8keIWEFlTiuxV2KuxV2Kux&#xA;Vj/nXTfrekmdBWW0PqD/AFDs4/j9GbLsvPwZaPKX4DGY2Tvyp+Y+iW/k+1GrXPG+sa2ohUF5JI0F&#xA;YmUDbZTxqT2zZ59LI5DwjYu002tjHH6juFGx/OKyn1mOCe0+raW/wG4ZuUisfsuwAoF8Rv417YZa&#xA;AiNg3JYdpgzoiovSI+EiLJGwdHAZWU1BB3BBGa8u0BXhMVXBMVXBMVbCYENkKqlmIVVFWY7AAdzh&#xA;W3l+ufnKLTXGh0y2jvNLh+CSRiytI4O7RsKgL2FVNeubDHobjuaLqsvaVTqIuK7zD+bOjX/lS8is&#xA;PVg1S4UQCCRd1WTaRldarstabg+2OLRyjMXyXN2hGWM19RUvyW8yeVdKjnsbucwatqEqhZJFpEVU&#xA;UjjD70NSx3oNxktdinLccg19n5YR2P1F7Tmqdw83/Pn/AJRCz/7aEf8AyYmzO7P+s+79Tru0v7se&#xA;/wDQWR+SIbFfJeivLHGOVpDVmVdzwHjlGoJ8SXvcnTRHhx9yc/7iPCH7lyqy38I7ku8xnSj5e1QK&#xA;IeRtJ+NAta+k2TxE8Q97XmiOA7dCwj8gf+OPqv8AzER/8QzM7R+oOD2Z9J971TNc7NiOs/mr5N0n&#xA;U/0dcXTyTI3Gd4EMiRHwdh1p3C1pmTDSZJCwHEya3HGVEsosr20vrSK7s5Vntp1DxSoaqwOY8okG&#xA;i5MZCQsclbAydirsVYh+Y35c6Z5y0z05KW+q24P1G+pup68Hpu0bH7uo96suITHm4uq0oyjzeBaF&#xA;ruv+QNfn0jV4HW2V6Xdod6V6TQnoaj6GGYIJgaLpITlhlwyetK1pqNpHqGnyLNDMvNWTow/r4jLC&#xA;L3DlTgJDiihcrcZ2KuxV2KuxVplV1KMAysCGB6EHCDW6sdXyHowuDIzStHUkQ8gF+VQOVPpzaHtf&#xA;Lw1tfew4A15l0HRY9GklWJbZrZaxPGACSdgrfzcj44NDq8pygXxcXNZRFMk/JeTWJtIuzczF9Nik&#xA;WKzjbcq1OUnE9eO67dM2GvERIVzdt2aZGJv6ej0cJmA7JcExVsJiq4JirBvzij1YeVDLZTNHbJKo&#xA;v4025xP8IqetA9KjvXMzRcPHv8HA7Q4vD25dVL8o9J8pJ5Mm1OWOKSWQyR6tLdBWVFjPLh8XwhOP&#xA;Fvfv2pLWTn4lfJr0MMfh8Xzt53q+n6f5p82my8maZ6FuagEFgrAH4pmDEiJPAfxNMzYSOOF5C4E4&#xA;jLkrGGc6x+R1ovlqNNMlL67bgvJK5olwSN0odkp+wfv8RiQ1549/pc3J2cOD0/V96X+UvzhudE0+&#xA;bSvMlvPcXVkOFs4oJSVNPSm5kfZ/m8Mnm0QmeKHIteDXmA4ZjcJXr/mbzp+YsaWFho/+gQzCZBEG&#xA;ajqrKPUncqnRz2GWY8WPBuTu15c2TUbCO346vWNNsLrTvJ+k2N2oS5toYopkBDAMqEEVFQc1eWQl&#xA;MkO408TGAB5gKLNkXIQWqxyT6bdwRisksMiIOlWZSBk4GpAsMkSYkDueaeXdf85/l8som0rlp9y4&#xA;aUyq3Asvw/BOhKA/f8s2mTHjz8ju6HHPLp9jHb8dU88z/nVJqWkx2GgWs1tf3g9OeRqM8fL4eEPG&#xA;pZm7NtTsK9KsWh4ZXI7BuzdocUagNyjfK35K2baDNJ5gZk1O8QeiEb/eWpqpO9Gcn7Vdu3vkM2uP&#xA;F6eQ+1ng7PHD6/qP2JFoOv69+WnmGTRdYVptIlbmyruOLGgngr8viX+OXZMcc8eKP1NGPLLTz4Zf&#xA;T+Nw9xsb60vrSK8s5Vntp1DxSoahgc1EokGi7mMhIWOStgZOxV2KsQ/Mb8udM85aZ6clLfVbcH6j&#xA;fU3U9eD03aNj93Ue9WXEJjzcXVaUZR5vAtC13X/IGvz6Rq8DrbK9Lu0O9K9JoT0NR9DDMEEwNF0k&#xA;Jywy4ZPWla01G0j1CwkWaGZeasnRh/XxGWEXuHKnASHEELlbjOxV2KuxV2KuxVjHn/6z+jYBGCYP&#xA;UrMR2oPhr7dc2/Y/D4hvnWzCfJkn5e/mL5SstGtNHuS+nywLRpZByikdjyZua7ipJ+0NvHM7U6WZ&#xA;kZDd2mk1mOMRE7PTLae2uYFntpUngcVSWNg6EezLUZgEEbF2QkCLDwfzB5p8za35pv30S9uorZCV&#xA;gjt5njX0oiEDUVl+0fi+nNofDw4wZj7HQZ9TOUyYk0lOm+d/MVhrkE9xqd1dGxmHr28s8kgIrR0I&#xA;Zqbioxwzw54kQH2NePUzEgSSafR631ibFL8zolm8azLO7BU4MOQYsaClDmr4TddXouMVfRgHnP8A&#xA;NTyiNPu9LtlbVXuI3hk9P4IQGFP7wg1pWo4g/PM3BpJ2CdnA1Gux0Yj1PK/Ldp5j1lm8uaS7mG9d&#xA;JbmEGkY9OoEkh7KvL6TTqaZscphH1y6OqwxnP0R6voXyZ5M0zytpgtbUepcyUa7u2FHkcfqUfsr/&#xA;ABzSZ85yGy7/AE+njijQ5o2/1CtYoj8PRmHf2GVAOQAxm68p+VtR1iHUtUs1nljHE7kI/wDKZFH2&#xA;+Pvl8c84xoFpyaWE5cRG7LTdadYwpDEFSNBSOGIAADtQCgGUbltEe5K9Q1Q3KCMJwQHlWtT0I/jh&#xA;AZgJczZJKxmxVH2WrJFbfVZ4FmgNQwO9Q3UEGoOCmMo2oaT5R8jWusNrtlapBdqppH0SMnq6Rn4V&#xA;am3w5bLUZDHhJ2caOkhGXEBur6lqL3b8VqsCn4V8fc5UA5QCC1rQ9M81aX+i9U+C4Spsr4Crxv8A&#xA;xB7jv86HLcWU4zYcfUaeOSNF5x5d8xa/+W+vyaNrMbSaVI3J0WpXiTQTwE/iO/Q75sMmOOePFHm6&#xA;jFlnp58Mvp/G4e7wyxzRJNEweKRQ6OOhVhUEZqCKd2Da7Al2KuxViH5jflzpfnLS/Tkpb6rbg/Ub&#xA;6m6nrwem7Rsfu6j3qy4hMebi6rSjKPN4FoWu6/5A1+fSNXgdbZXpd2h3pXpNCehqPoYZggmBoukh&#xA;OWGXDJ6yrWmoWkeoafIs0Ey81ZOjD+viMsIvcOTOAI4oobK3HdirsVdirsVcQCKHcHqMKpLqPlDR&#xA;r2rCL6vKf24fhFfdfs5nYO0ssOvEPNiYgpH+gfNmimU6PeSNDKCsiwuYyykUPKMmh/HNrj7Sw5Pr&#xA;FH8dViZx+ksXutem0W0uNPtCF1G4PG6nUgmJF/3WpH7ZqeRHT59NX2prBlkBH6Q1GVMt8m/kpr2o&#xA;eWrnWZ2+rXk8atpdjJ8JkXkCXlJ+zyWvAfSaDD2bI4pcR5FzcOglKBl16Jrpn5VfmDrCQWurzmw0&#xA;61HCFJ5PV4qP99xRsR95GbqWrxR3juSzhoss9pGgHoOh/lB5O0yEiaBtQuWUq09wa0qKEogoq+x3&#xA;I8cwsmtnLyc7HoMcee7zi0n1/wDK3zS8dxH9Y0y7oGYCizwqdmRj9mROW6/wIOZ0hHUQ25h18TPT&#xA;T3+kvYI/Mljq1hFc6ZKJbWda+oNj7qR2I6HNVLGYmjzd5jmJjiHJDM2BsU2bFKxmxVTZsKqZbFWq&#xA;E4VXBcCrwuKrwuKrLy7tbG1ku7qQQ28I5SSN0AwxiZGgxnMRFnk8w1TU/MH5l67b6ZYRBbK0LGKR&#xA;13jjNA0sz79abKPluc2kIRwRs83Q5cktTOojYPeNM0+HTtNtbCCvo2kSQx168Y1Civ3ZqJy4iT3u&#xA;6hERAA6InIsnYq7FXYqxD8xvy50vzlpfpyUt9VtwfqN9TdT14PTdo2P3dR71ZcQmPNxdVpRlHm8B&#xA;0LXde8ga/PpGrwOtsr0u7Q70r0mhPQ1G/gwzBBMDRdLCcsMuGT1pWtNQtI9Q0+RZoJl5qydGH9fE&#xA;ZYRe4cicARxRQ2VuO7FXYq7FXYq7FWBeevPX1f1NK0qT9/utzcqfseKIf5vE9vn0iS1znWwZJ+T3&#xA;5Per6HmTzJB+72k07TpB9rus0ynt3VT16nbrk4MHUuw0Wi/jn8A91zMdw7FXYqxb8zItFbybqEmr&#xA;RCWKFOVv2cTn4Yijdjyb7q9syNKZeIOFxtYI+GeJhH5IeX7+XT9Q1GWZ47GVhFbQfsNItC8tD4bL&#xA;t138Myu0JiwOridmRkAZdGbzo8UjRvsymhzAdwoM2KqbNhVA6hq+m6fH6l7cx26n7PNgCf8AVXqf&#xA;oycMcpcgwyZYw+o0k3/KxPKAfj9dNP5/Slp/xGuX/lMnc438oYe/7CnWmazpOpqTYXcdwV3ZUb4g&#xA;PdT8Q+7KZ45R5hyMeaE/pNpiFytsXhcVXhcUMD/NzTr6XR7e8hlb6rbSUubcfZ+OgST6Dt9OZ2hk&#xA;BIjqXWdpwkYAjkGZflFFog8l2s2mxBJZKjUGO7tcJs3I+HdR2ByjWGXiG/g2aER8McPx97NMxHMd&#xA;irsVdirsVdirEPzG/LnTPOWmcH42+q26n6jfU3U9eD03aNj93Ue9WXEJjzcXU6YZR5vAdC13XvIG&#xA;vT6Rq8DrbK9Lu0O9K9JoT0NR9DDMEEwNF0sJywy4ZPWVa0v7SPUNPkWa3mXmrJ0I/r4jJkXuHInA&#xA;EcUUPkHHdirsVdirAvPXnr6v6mlaVJ+/3W5uVP2PFEP83ie3z6RJa5zrYMk/J78nvV9DzJ5kg/d7&#xA;Sadp0g+13WaZT27qp69Tt1ycGDqXYaLRfxz+Ae65mO4diqWeZ9bXQ9AvdWaP1vqkfJYq05MSFUE9&#xA;hyIrlmLHxyEe9qzZOCBl3PJbT80fzT1CI3Nho4ubZmIWSCznlSo/Z5Kx6ZsjpMMdiftDq46zPLcR&#xA;29xSvzXrP5oeY9PjstT0S5itUlEv7qzuI6sAVHIty2+LLMMMMDYkPmGvPkz5BUomvcXtWg6ZD5f8&#xA;s2liAB9TgUSU6NJSrn/ZOSc1OWfHInvdzhx8ERFJpZWd2djVmNSfni5CiWxVivnfzgNEt1t7ajaj&#xA;OCYwdxGvTmR39hmXptPxmzycHW6vwhQ+oobyv+T+p62Bq3mm6mg9ejrbgg3DA7guzBgn+rSvyy7L&#xA;rIw9MA4WLQyyerIefzZqv5O/l+IfTOnuzUp6pnn5fPZwv4Zifncve5f5DF3faWI+aPyXudPU6l5V&#xA;upWmg+P6m7Ul2/31IvGp/wAkj6cysWuEtphxc2gMfVjK/wAg+dX1flpmpfBqsAJDEcfVVdjttR17&#xA;jK9Vp+D1D6XJ0Ws8T0y+ofazYLmE7BeFxVQ1LTodQ065sZhWK5jaNvbkKV+Y65KEuEghhkgJRIPV&#xA;5H5Y1/8AMDynFc2On6dI8UkvORZbaWQB1HElSvHqAM22XHiyUSftdDhnmxWAPsTiT82/zJtV9e60&#xA;yNLdCDI0lrMi0JpQsWFK9MqGjxHYH7W063MNyNvcXoH/ACsKL/lXf+K/RHrenx+r78frHP0uNevH&#xA;nv8ALMP8t+94HO/NfufE/FsxzFct2KuxV2KuxViH5jflzpnnLTOD8bfVbdT9RvqbqevB6btGx+7q&#xA;PerLiEx5uLqdMMo83gOha7r3kDXp9I1eB1tlel3aHelek0J6Go322YZggmBoulhOWGXDJ6yrWl/a&#xA;R6hp8izW8y81ZOhHj8/EZMi9w5E4Ajiih8g47sVYF5689fV/U0rSpP3+63Nyp+x4oh/m8T2+fSJL&#xA;XOdbBkn5Pfk96voeZPMkH7vaTTtOkH2u6zTKe3dVPXqduuTgwdS7DRaL+OfwD3XMx3DsVdirFfzS&#xA;/wCUB1f/AIxp/wAnUzI0n94HF1v91JLfyU/5QaL/AJiJv1jLNd/eNfZ/918U/n1u7SZ0ASisQNj2&#xA;PzzFp2HChLrV7q4iMT8QpIJoKHb6cICQEASTkkthcVef+QtPj81/mPdajeD1bSxLXCRtup4MEgU/&#xA;L7X0Zss8vCwgDmfwXRYR42cyPIfgPds1DuXYq7FXiP5taZ/h3zjp/mKwX0xeMZZVXYGaIj1P+RiM&#xA;K+O+bbRy8TGYHo6fWR8LKJjq9HhZJY0kQ1R1DKfYiozWkU7oG1ULgVeFxVeFxVjH5oD/AJ0TU/8A&#xA;nh/1ER5k6P8AvB+Ojh6/+5Pw+9i3/lA/+jj/ALG8yv8AkT+O5wP+Qvx/S9szUu5dirsVdirsVdir&#xA;EPzG/LnTPOWmcH42+q26n6jfU3U9fTkpu0bH7uo96suITHm4uq0oyjzeA6FruveQNen0jV4HW2V6&#xA;Xdod6V6TQnoajfbZhmCCYGi6WE5YZcMnrAazvrSPULCRZraZeasvQjx/qMmR1DfkgCOIPO/PXnr6&#xA;v6mlaVJ+/wB1ublT9jxRD/N4nt8+lRLiTnWwZJ+T35Per6HmTzJB+72k07TpB9rus0ynt3VT16nb&#xA;rk4MHUuw0Wi/jn8A91zMdw7FXYq7FWK/ml/ygOr/APGNP+TqZkaT+8Di63+6klv5Kf8AKDRf8xE3&#xA;6xlmu/vGvs/+6+KMvG/0mb/Xb9eY4dkFDc4UrguKF4XArCPyIkW213WdPl2uDEp4/wDGGQq/4uM2&#xA;PaG8Yl0fZu05RPN7Tmqdw7FXYq8i/wCcgLqL0dGtBQzFppSP2gtFUf8ABH9WbPs4cy6rtOW0QzTT&#xA;YHh0+1ievOOJEavWqqAcwZmyXawFRARYXIsl4XFV4XArF/zSH/Oh6n/zw/6iI8ydH/ej8dHD1/8A&#xA;cn4fexP/AMoH/wBHH/Y3mX/yJ/Hc4H/IX4/pe2ZqXcuxV2KuxV2KuxV2KsR/MX8udL85aaEkpb6p&#xA;bg/Ur4CpXvwf+ZD4duo96suITHm42p0sco83hr/lV+bulPLZWVvObeQmrWd0qwydqkc0O4/mAzD8&#xA;GYdOdHnjsB9rOPy0/IqSwu49X81rHJPEQ9tpikSIrjo0zCqtTsoqPE9suxaet5OZpez6PFP5PaMy&#xA;3auxV2KuxV2KsZ/MyCafyJrCRIXcQhyo68Y3V2P0KpOZGlNZA42sF4pPN/y8/NPy95b8tppl9b3c&#xA;k6yySFoEjZKOajdpEP4ZnanSSnOxTr9LrYY4cJBVpvzZ8uSTyOLe8AdiwqkXQmv+/Mq/Iz7w5f8A&#xA;KmPul9n62ZRlXRXQ8kYBlI6EHcHMMuyBtVC4FXhcVeZ+ZY9Q8nec4PM1gnK1uJC8idFLMP30TeHM&#xA;VYf2Zs8BGXHwHmHSaqBw5fEHI/gvZ/L3mPSfMGnJfabMJY2A9SPo8bd0dex/zGazJilA0XZ4sscg&#xA;uKZ5W2IHWdb0zRrCS/1KdYLeMdWO7HsqjqzHwGThjMjQYZMkYCy8U04335g+fG1e4jZNKsipVD0W&#xA;KMkxRV/mdvib6fbNpOsGLhH1F1OIHUZuI/SHrgXNW7teFxVeBgQwOT86fKccjoLe9cKSvNY4uLUN&#xA;Kiso2OZo0E+8OvPaWPuP4+KR+dPzS8va55ZvNLtLe7S4uPS4PKkYQcJUkNSsjHovhl+DSShMSNOP&#xA;qddDJAxANlX+rz/8qD/u2/vfU6fsfW/tfLBY/M/juRR/K/jve0ZqncOxV2KuxV2KuxV2KuxV2Kux&#xA;V2KuxV2KuxV2KuZQwKsAVIoQehGKsfuPy/8AJVxM80ujWxkc1YqnEE+NFoMuGpyDqWg6XGf4QxD8&#xA;zPy40KLypcXui6fHbXdkwnkMQNWhWokHfoDy+jMrS6mXHUjsXE1mkiMZMRRCYflprq6/5HS0duV9&#xA;pYFvIvcqgrC30oOPzByrV4+DJfQt2gzcUAOo2TILlDsF4XFClfadZ39pJaXkSzW8oo8bdD/Qjxwx&#xA;kYmwwnASFHk88vPy18x6Pem+8q6g6n9mP1DFMB/LyFEcfOmbCOrhIVMOqnoJwN4yqjXfzyVfq/Fy&#xA;3QSelak/8FTjjwabn+tjxarl+pTg/Lnzh5gvFu/NWosqjrGZBNKB3VAKxIPl92J1eOAqATHQ5Mhv&#xA;Ifx9z0rSNH0/SbGOxsIhDbx9ANySerMe5Oa+czI2XaY8cYCo8keFyLYvC4EMb/MXX10XytdSq3G6&#xA;ugba1HfnICC3+xWpzI0uPjmO4OLrM3BjPedkg/Kj8vNFu/LP6S1qxS6lvZC1uJQfhhT4RQbfaYE/&#xA;KmZGs1MhOonk4mi0sTDikLtmqfl15HRgw0a2qNxVSR9xJGYn5nJ3lzPymL+aE/8Aq1t9X+rekn1b&#xA;h6focRw4Upx49KU2plNm7b6FV0VMCXYq7FXYq7FXYq7FXYq7FXYq7FXYq7FXYq7FXYq7FXlv5ofm&#xA;X9W9Ty5oJ9a/m/c3dwnx+nz+ExRgVrIa0Ph8+mw0mlv1y5Os1mrr0Q5pj+VnkKfyzZS6nqchS/vI&#xA;wJLYN8EUYPIBgNmf9XQd8hq9QMhocg26LSnGLPMp5OY3ndoxRGNQDmK7FoLiq8LiheFxVeFxVeFx&#xA;VeFwIXhcVXhcVYh+ZHkaXzLp0ctpIV1CyDGCJjSOQNTkprsrGmzff7ZWl1HhnfkXC1mm8Qbcwkn5&#xA;YfmO9s8flbzFW3mtyLeynkHChX4RBLXoR0U/Qcu1Wmv1xcbR6uv3c/x5PW81rtXYq7FXYq7FXYq7&#xA;FXYq7FXYq7FXYq7FXYq7FXYq7FXYqpXcc0lrNHBJ6U7oyxS0rxcghWp7HCOe6JA1s8B/Lu70vyz5&#xA;zlg80WphvVPpQ3Ux2t5Sd2YHs4O0nb5GubnUxOTHcDs6LSyjjyVMb/c9s1WSdpAp2gO6EbhvfNOH&#xA;fhAhcLJeFxQvC4qvC4qvC4qvC4ELwuKrwuKF4XFV4XFXhf5p6ho2u+ZYLPQrY3OpqfRuLqHcTP0V&#xA;FA+0U/m+joM2+kjKELkdnR62cZzqIuT3LRre7ttIsre9k9W7hgiS4l/mkVAGP0nNRMgyJHJ3OMER&#xA;APNGZFm7FXYq7FXYq7FXYq7FXYq7FXYq7FXYq7FXYq7FXYq7FWIfmF+Xtl5psvVi4waxAv8Ao1z2&#xA;YdfTkp1U9j2+8HK02pOM/wBFxNVpRlH9JgvkTz3d6Hdnyl5tVooIm9KCeX7Vu3ZWPeM/st2/1emX&#xA;qNOJjjg4el1Rxngn/Y9G1SW20u2ku7yVY7SNeZnP2eP9fbNdGJkaHN28piIs8nkd7+Yvm3U9Ykuv&#xA;L8Mn1CyUsbdYjKDHUAyThQaV9jt95zaR0sIxqXMulnrskpXDkPxuyDQ/zk0adVTV4Hspe8sYMsR9&#xA;6D4x8qHKMmhkPp3cnF2lE/UKehWVzb3lrFdWziS3nUSRSCtGVhUHfMKQINF2MZCQsckSFyKWppYo&#xA;IJJ5m4RRKXkc9AqipP3YQL2QTQssA1z86dAtFaPSoZNQm/ZkYGKH72HM/wDA/Tmbj0Mj9WzrsvaU&#xA;B9O7F7b8z/Othq9vqmsQP+i7wEJaekYomjB3aAsN2WvUk5knSYzHhjzDix1uWMhKX0n8bPaNK1Ox&#xA;1TT4b+xlE1tOoaNx+II7EdCM1U4GJou4hMSFjk8x/MT8xLm/uT5Y8sFppZm9G5uYd2djsYoiO38z&#xA;fwzYabTADjm63V6syPBBlX5b/lvbeWbYXt6Fm1uZfjfqsKnrHGfH+Zv4dcbVao5DQ+lyNJpBjFn6&#xA;mcZiOa7FXYq7FXYq7FXYq7FXYq7FXYq7FXYq7FXYq7FXYq7FXYq7FWIfmF+Xtl5psvVi4waxAv8A&#xA;o1z2YdfTkp1U9j2+8HK02pOM/wBFxNVpRlH9J5anlH80tXW18tXsM8WnWL/C85AgjU7V9Qf3vAfZ&#xA;ClqdBmw8bDG5jmXWjBnnUDyD2jyp5U0vyzpa2NitWNGuLhh8cr/zN/Ads1WbMchsu3wYI440GB/n&#xA;poukw6BbalDZxRX8l6kctyiBXdWilYhiKct1HXMzQTkZEXtThdpY4iIIG9sn8jj/AJ1DR/8AmEi/&#xA;4iMxtR/eH3ubpv7uPuT4LlLegfMK/wDOvap/zCT/APJpsni+oe9qzfQfcXnn5FaNpN1aahe3VpFP&#xA;dQTIsE0iB2QFK/DyrT5jM7tCcgQAdnW9m44kEkbvTvMflzS/MOlyadqMfOJ945Bs8bjo6HsRmBiy&#xA;mBsOxy4o5I0XiF35W/Mvy3Le6Fpkd1cadfGnrWqM0br05chX0mI2bcfSM2wy4slSNWHTnDmx3GN0&#xA;e78bPSvy3/Le28s2wvb0LNrcy/G/VYVPWOM+P8zfw64Gq1RyGh9LsNJpBjFn6mcZiOa7FXYq7FXY&#xA;q7FXYq7FXYq7FXYq7FXYq7FXYq7FXYq7FXYq7FXYq7FXYq7FXn/53WF5d+To2tomlFrdxzzhBUrG&#xA;I5ELUHYFxXM3QSAyb9zgdoxJx7dCwTRfzjudL0m005dLSUWkSQiQzFS3AUrTgaZl5NCJSJvm4mPt&#xA;ExiI8PJHD8+Lv/qzx/8AI9v+aMh/J472f8qH+b9qjqH53XV5p9zZnSEQXMTwlxMTT1FK1pw7VyUd&#xA;AAQbYz7SJBHDz82T/kTp95beX725niaOK7nVrdmFOaqlCwr2qeuY/aEgZADo5HZsCIEnq9MzAdi7&#xA;FXYq7FXYq7FX/9k=</xapGImg:image>
               </rdf:li>
            </rdf:Alt>
         </xap:Thumbnails>
      </rdf:Description>
      <rdf:Description rdf:about=""
            xmlns:xapMM="http://ns.adobe.com/xap/1.0/mm/"
            xmlns:stRef="http://ns.adobe.com/xap/1.0/sType/ResourceRef#">
         <xapMM:DocumentID>uuid:05C78E5B48D0DE11A345C989CD429E26</xapMM:DocumentID>
         <xapMM:InstanceID>uuid:06C78E5B48D0DE11A345C989CD429E26</xapMM:InstanceID>
         <xapMM:DerivedFrom rdf:parseType="Resource">
            <stRef:instanceID>uuid:04C78E5B48D0DE11A345C989CD429E26</stRef:instanceID>
            <stRef:documentID>uuid:03C78E5B48D0DE11A345C989CD429E26</stRef:documentID>
         </xapMM:DerivedFrom>
      </rdf:Description>
   </rdf:RDF>
</x:xmpmeta>
                                                                                                    
                                                                                                    
                                                                                                    
                                                                                                    
                                                                                                    
                                                                                                    
                                                                                                    
                                                                                                    
                                                                                                    
                                                                                                    
                                                                                                    
                                                                                                    
                                                                                                    
                                                                                                    
                                                                                                    
                                                                                                    
                                                                                                    
                                                                                                    
                                                                                                    
                                                                                                    
                           
<?xpacket end="w"?>
	</metadata>
<g>
	<path fill="#67A663" d="M57.715,157.352l46.438-46.438c1.629-1.629,2.119-4.08,1.238-6.209c-0.883-2.131-2.967-3.517-5.268-3.517
		H75.336V2.224H32.037v98.964H7.248c-2.311,0-4.389,1.386-5.27,3.517c-0.289,0.704-0.426,1.445-0.426,2.176
		c0,1.486,0.574,2.942,1.666,4.033l46.438,46.438c1.063,1.062,2.526,1.673,4.029,1.673
		C55.187,159.024,56.657,158.413,57.715,157.352z"/>
	<path fill="#A1D5A1" d="M90.825,124.467l-32.886,32.885c-1.058,1.062-2.527,1.673-4.028,1.673c-1.504,0-2.968-0.611-4.03-1.673
		L3.441,110.914c-1.092-1.091-1.666-2.547-1.666-4.033c0-0.731,0.137-1.472,0.426-2.176c0.88-2.131,2.958-3.517,5.269-3.517h24.79
		V47.997C32.261,47.997,41.644,116.945,90.825,124.467z"/>
	<path fill="none" stroke="#C1DFC0" stroke-width="7" stroke-linecap="round" d="M34.063,3.649l0.027,98.449H10.844
		c-2.167,0-4.116,1.3-4.942,3.298c-0.271,0.66-0.4,1.355-0.4,2.041c0,1.393,0.538,2.759,1.563,3.781l44.917,45.631"/>
	<path fill="none" stroke="#3F7737" stroke-width="4" d="M58.163,157.128l46.439-46.438c1.627-1.628,2.119-4.079,1.236-6.208
		c-0.881-2.131-2.965-3.517-5.268-3.517H75.784V2H32.485v98.964H7.696c-2.311,0-4.389,1.386-5.27,3.517
		C2.137,105.185,2,105.926,2,106.657c0,1.485,0.574,2.942,1.666,4.033l46.439,46.438c1.062,1.062,2.526,1.673,4.029,1.673
		C55.635,158.801,57.105,158.189,58.163,157.128z"/>
</g>
<g>
	<path fill="#FFFFFF" d="M120.272,171.312c-1.71-2.841-3.014-5.954-3.836-9.256h-3.945c0.857,2.737,2.021,5.338,3.468,7.745
		l-7.25,7.253l12.289,12.291l1.812-1.807l-9.378-9.386L120.272,171.312z"/>
	<path fill="#FFFFFF" d="M116.436,145.665c0.815-3.31,2.121-6.428,3.836-9.268l-6.841-6.84l11.591-11.591l6.843,6.836
		c2.841-1.711,5.956-3.011,9.259-3.832v-9.68h14.325v-5.12h-17.381v10.255c-3.505,0.868-6.809,2.251-9.822,4.064l-7.248-7.25
		l-12.289,12.291l7.25,7.249c-1.817,3.015-3.197,6.32-4.068,9.824h-10.254l-0.003,17.383h5.128v-14.323H116.436z"/>
	<path fill="#FFFFFF" d="M166.781,124.802l6.84-6.836l9.375,9.378l1.814-1.809l-12.291-12.295l-7.251,7.25
		c-2.41-1.451-5.01-2.609-7.747-3.471v3.951C160.823,121.792,163.939,123.091,166.781,124.802z"/>
	
		<linearGradient id="XMLID_3_" gradientUnits="userSpaceOnUse" x1="-225.0444" y1="602.061" x2="-221.7931" y2="602.061" gradientTransform="matrix(-17.7134 -25.4152 -25.4152 17.7134 11485.4355 -16199.6777)">
		<stop  offset="0" style="stop-color:#F8F8FB"/>
		<stop  offset="0.5773" style="stop-color:#D8D0DB"/>
		<stop  offset="1" style="stop-color:#F7F6F6"/>
	</linearGradient>
	<path fill="url(#XMLID_3_)" d="M181.627,142.604c-0.603-2.418-1.461-4.733-2.528-6.936c-0.473-0.986-0.978-1.951-1.539-2.888
		l5.436-5.436l-9.375-9.378l-6.84,6.836c-2.842-1.711-5.958-3.011-9.26-3.832v-3.951c-0.688-0.21-1.373-0.42-2.072-0.594v-5.136
		h-14.325v9.68c-3.303,0.821-6.418,2.121-9.259,3.832l-6.843-6.836l-11.591,11.591l6.841,6.84c-1.715,2.84-3.021,5.958-3.836,9.268
		h-9.675v14.323h5.129c0.173,0.696,0.384,1.38,0.601,2.067h3.945c0.822,3.303,2.126,6.415,3.836,9.256l-6.841,6.84l9.378,9.386
		l5.437-5.44c0.938,0.56,1.909,1.064,2.89,1.537c2.201,1.069,4.514,1.925,6.933,2.524v10.258h17.381v-10.258
		c3.507-0.87,6.81-2.254,9.819-4.062l7.251,7.248l0.353-0.349l11.591-11.595l0.348-0.347l-7.253-7.253
		c1.815-3.014,3.2-6.31,4.07-9.813h10.255l0.003-14.323v-3.061H181.627z M146.76,137.083c5.693,0,10.595,3.364,12.859,8.201
		c0.854,1.829,1.348,3.859,1.348,6.007c0,7.852-6.362,14.206-14.207,14.206c-2.149,0-4.182-0.492-6.005-1.343
		c-4.843-2.264-8.202-7.168-8.202-12.863C132.553,143.442,138.914,137.083,146.76,137.083z"/>
	<path fill="none" d="M138.068,104.628c-0.851,0-1.539,0.693-1.539,1.543c0,0,0,7.38,0,9.144c-2.787,0.791-5.455,1.899-7.977,3.305
		c-1.25-1.251-6.468-6.465-6.468-6.465c-0.599-0.607-1.578-0.607-2.175,0l-12.293,12.29c-0.286,0.289-0.448,0.677-0.448,1.087
		s0.162,0.799,0.448,1.088c0,0,5.221,5.222,6.469,6.467c-1.41,2.518-2.515,5.189-3.303,7.977c-1.77,0-9.146,0-9.146,0
		c-0.852,0-1.54,0.69-1.54,1.542v17.383c0,0.41,0.158,0.793,0.451,1.085c0.285,0.286,0.679,0.452,1.086,0.452c0,0,7.387,0,9.149,0
		c0.788,2.779,1.893,5.449,3.306,7.974c-1.251,1.252-6.472,6.47-6.472,6.47c-0.286,0.289-0.448,0.683-0.448,1.085
		c0,0.407,0.162,0.807,0.448,1.09l12.293,12.297c0.286,0.286,0.679,0.444,1.088,0.444c0.407,0,0.799-0.158,1.087-0.444
		c0,0,5.218-5.228,6.468-6.473c2.525,1.41,5.194,2.515,7.977,3.299c0,1.766,0,9.149,0,9.149c0,0.848,0.688,1.541,1.539,1.541h17.381
		c0.852,0,1.538-0.693,1.538-1.541c0,0,0-7.384,0-9.149c2.785-0.785,5.449-1.889,7.977-3.299c1.248,1.245,6.466,6.465,6.466,6.465
		c0.605,0.601,1.578,0.601,2.18,0l12.29-12.29c0.299-0.302,0.451-0.689,0.451-1.09c0-0.394-0.152-0.784-0.451-1.085
		c0,0-5.218-5.218-6.466-6.47c1.407-2.525,2.512-5.195,3.303-7.974c1.766,0,9.146,0,9.146,0c0.852,0,1.54-0.693,1.54-1.537v-17.383
		c0-0.409-0.163-0.805-0.45-1.084c-0.29-0.289-0.685-0.457-1.087-0.457c0,0-7.384,0-9.149,0c-0.791-2.785-1.896-5.449-3.303-7.977
		c1.248-1.245,6.466-6.467,6.466-6.467c0.299-0.298,0.451-0.693,0.451-1.084c0-0.4-0.152-0.794-0.451-1.091l-12.29-12.29
		c-0.289-0.289-0.68-0.452-1.09-0.452c-0.407,0-0.801,0.163-1.09,0.452c0,0-5.213,5.214-6.466,6.465
		c-2.521-1.406-5.186-2.515-7.977-3.305c0-1.764,0-9.144,0-9.144c0-0.85-0.687-1.543-1.538-1.543H138.068z M153.909,107.708
		c0,2.22,0,8.719,0,8.719c0,0.704,0.483,1.324,1.169,1.489c3.315,0.828,6.476,2.14,9.4,3.894c0.604,0.361,1.379,0.273,1.883-0.23
		c0,0,4.59-4.588,6.158-6.159c1.636,1.63,8.482,8.478,10.114,10.116c-1.571,1.567-6.16,6.162-6.16,6.162
		c-0.3,0.296-0.455,0.686-0.455,1.083l0.224,0.798c1.758,2.918,3.067,6.082,3.89,9.4c0.175,0.683,0.787,1.166,1.496,1.166
		c0,0,6.491,0,8.718,0c0,2.308-0.003,11.995-0.003,14.297c-2.224,0-8.715,0-8.715,0c-0.709,0-1.327,0.486-1.5,1.172
		c-0.818,3.313-2.128,6.47-3.889,9.394l-0.221,0.793c0,0.4,0.152,0.801,0.452,1.09c0,0,4.592,4.589,6.163,6.164
		c-1.632,1.636-8.479,8.479-10.114,10.122c-1.568-1.582-6.164-6.171-6.164-6.171c-0.498-0.504-1.276-0.597-1.88-0.229
		c-2.926,1.76-6.089,3.068-9.397,3.891c-0.686,0.171-1.169,0.788-1.169,1.492c0,0,0,6.494,0,8.72c-2.308,0-11.992,0-14.302,0
		c0-2.226,0-8.72,0-8.72c0-0.705-0.48-1.321-1.166-1.492c-3.313-0.822-6.473-2.131-9.401-3.891c-0.6-0.368-1.378-0.276-1.877,0.229
		c0,0-4.595,4.592-6.165,6.171c-1.632-1.642-8.485-8.485-10.114-10.122c1.573-1.574,6.165-6.164,6.165-6.164
		c0.295-0.289,0.452-0.69,0.452-1.09l-0.224-0.793c-1.763-2.924-3.07-6.082-3.891-9.394c-0.172-0.686-0.787-1.172-1.496-1.172
		c0,0-6.49,0-8.717,0c0-2.302,0.004-11.989,0.004-14.297c2.223,0,8.713,0,8.713,0c0.709,0,1.324-0.483,1.496-1.166
		c0.82-3.318,2.131-6.481,3.891-9.4l0.224-0.798c0-0.397-0.157-0.787-0.452-1.083c0,0-4.592-4.595-6.165-6.167
		c1.637-1.633,8.482-8.481,10.114-10.111c1.57,1.571,6.165,6.159,6.165,6.159c0.496,0.503,1.277,0.591,1.877,0.23
		c2.923-1.754,6.083-3.065,9.404-3.894c0.683-0.165,1.163-0.785,1.163-1.489c0,0,0-6.499,0-8.719
		C141.917,107.708,151.601,107.708,153.909,107.708z"/>
	<path fill="#4B80A9" d="M131.009,151.291c0,8.684,7.066,15.743,15.751,15.743c8.683,0,15.746-7.059,15.746-15.743
		c0-8.678-7.063-15.745-15.746-15.745C138.076,135.546,131.009,142.613,131.009,151.291z M134.09,151.291
		c0-6.981,5.683-12.664,12.67-12.664c6.983,0,12.668,5.682,12.668,12.664c0,6.987-5.685,12.669-12.668,12.669
		C139.773,163.96,134.09,158.278,134.09,151.291z"/>
	<path fill="#FFFFFF" d="M63.248,99.369c-0.39-2.474-0.421-5.018-0.061-7.562l-2.759-1.12c-0.176,2.161-0.098,4.309,0.231,6.405
		l-7.124,3.017l5.117,12.078l1.777-0.752l-3.902-9.217L63.248,99.369z"/>
	<path fill="#FFFFFF" d="M67.829,80.345c1.506-2.079,3.302-3.896,5.305-5.394l-2.846-6.72l11.387-4.824l2.844,6.716
		c2.475-0.39,5.022-0.416,7.565-0.061l2.74-6.763l10.018,4.055l1.447-3.583L94.135,58.85l-2.902,7.17
		c-2.697-0.381-5.398-0.349-8.019,0.067l-3.018-7.124L68.123,64.08l3.021,7.124c-2.125,1.593-4.028,3.511-5.629,5.712l-7.17-2.9
		l-4.922,12.151l3.586,1.454l4.054-10.017L67.829,80.345z"/>
	<path fill="#FFFFFF" d="M108.941,80.01l6.721-2.842l3.898,9.21l1.781-0.75l-5.116-12.077l-7.12,3.013
		c-1.276-1.696-2.769-3.243-4.439-4.618l-1.117,2.76C105.625,76.222,107.439,78.009,108.941,80.01z"/>
	
		<linearGradient id="XMLID_4_" gradientUnits="userSpaceOnUse" x1="-209.8071" y1="594.4165" x2="-206.554" y2="594.4165" gradientTransform="matrix(-5.1929 -22.7877 -22.7877 5.1929 12550.3867 -7745.0425)">
		<stop  offset="0" style="stop-color:#F8F8FB"/>
		<stop  offset="0.5773" style="stop-color:#D8D0DB"/>
		<stop  offset="1" style="stop-color:#F7F6F6"/>
	</linearGradient>
	<path fill="url(#XMLID_4_)" d="M114.283,96.66c0.263-1.862,0.317-3.722,0.196-5.567c-0.055-0.822-0.134-1.642-0.26-2.456
		l5.341-2.26l-3.898-9.21l-6.721,2.842c-1.502-2.001-3.315-3.788-5.393-5.304l1.117-2.76c-0.42-0.345-0.838-0.683-1.275-1
		l1.451-3.592l-10.018-4.055l-2.74,6.763c-2.543-0.355-5.091-0.329-7.565,0.061l-2.844-6.716L70.288,68.23l2.846,6.72
		c-2.003,1.498-3.799,3.315-5.305,5.394l-6.767-2.74l-4.054,10.017l3.588,1.451c-0.08,0.538-0.123,1.079-0.168,1.615l2.759,1.12
		c-0.36,2.544-0.329,5.088,0.061,7.562l-6.72,2.849l3.902,9.217l5.346-2.269c0.495,0.662,1.028,1.285,1.58,1.896
		c1.236,1.367,2.611,2.62,4.133,3.728l-2.903,7.171l12.155,4.92l2.905-7.171c2.698,0.387,5.403,0.349,8.016-0.063l3.021,7.123
		l0.345-0.146l11.386-4.824l0.344-0.142l-3.021-7.128c2.125-1.593,4.027-3.511,5.628-5.715l7.171,2.906l4.055-10.017l0.868-2.141
		L114.283,96.66z M91.461,82.931c3.982,1.613,6.455,5.35,6.673,9.375c0.078,1.517-0.15,3.08-0.76,4.586
		c-2.224,5.483-8.47,8.132-13.957,5.906c-1.503-0.606-2.785-1.528-3.817-2.64c-2.748-2.953-3.707-7.333-2.094-11.315
		C79.727,83.357,85.973,80.71,91.461,82.931z"/>
	<path fill="none" d="M94.571,57.773c-0.595-0.243-1.271,0.046-1.512,0.644c0,0-2.091,5.157-2.588,6.392
		c-2.173-0.231-4.352-0.219-6.515,0.055c-0.521-1.233-2.692-6.355-2.692-6.355c-0.251-0.594-0.934-0.867-1.521-0.619l-12.074,5.119
		l-0.623,0.632l0.005,0.889c0,0,2.174,5.13,2.694,6.352c-1.701,1.369-3.225,2.921-4.569,4.646c-1.235-0.501-6.399-2.59-6.399-2.59
		c-0.591-0.239-1.271,0.049-1.508,0.641l-4.923,12.157l0.005,0.886l0.633,0.621c0,0,5.165,2.093,6.396,2.595
		c-0.23,2.167-0.215,4.343,0.059,6.507c-1.23,0.528-6.358,2.693-6.358,2.693l-0.62,0.636l0.004,0.893l5.119,12.073l0.633,0.621
		l0.889-0.007c0,0,5.129-2.175,6.354-2.69c1.368,1.699,2.921,3.229,4.643,4.566c-0.499,1.233-2.593,6.399-2.593,6.399
		c-0.236,0.594,0.049,1.271,0.642,1.511l12.155,4.92c0.596,0.242,1.273-0.05,1.515-0.641c0,0,2.091-5.165,2.588-6.398
		c2.169,0.237,4.345,0.219,6.513-0.049c0.522,1.219,2.69,6.349,2.69,6.349c0.252,0.594,0.935,0.867,1.525,0.618l12.074-5.113
		l0.622-0.635c0.111-0.279,0.116-0.592-0.007-0.892c0,0-2.174-5.127-2.693-6.352c1.703-1.366,3.229-2.921,4.571-4.641
		c1.234,0.5,6.395,2.589,6.395,2.589c0.596,0.24,1.271-0.047,1.513-0.641l4.923-12.161l-0.011-0.878l-0.632-0.629
		c0,0-5.16-2.091-6.396-2.588c0.234-2.17,0.216-4.345-0.055-6.516c1.227-0.516,6.355-2.691,6.355-2.691l0.618-0.628l-0.002-0.893
		l-5.117-12.074l-0.635-0.623l-0.889,0.003c0,0-5.123,2.172-6.352,2.696c-1.366-1.698-2.916-3.229-4.645-4.566
		c0.504-1.24,2.59-6.396,2.59-6.396c0.241-0.594-0.045-1.273-0.642-1.519L94.571,57.773z M104.776,64.413
		c-0.628,1.551-2.467,6.095-2.467,6.095c-0.197,0.495-0.034,1.061,0.398,1.372c2.081,1.521,3.921,3.33,5.471,5.38
		c0.317,0.429,0.89,0.584,1.381,0.377c0,0,4.508-1.909,6.051-2.565c0.683,1.607,3.527,8.333,4.208,9.938
		c-1.543,0.65-6.053,2.568-6.053,2.568l-0.623,0.627l-0.07,0.618c0.404,2.545,0.423,5.127,0.061,7.677
		c-0.072,0.529,0.219,1.041,0.715,1.237c0,0,4.538,1.839,6.097,2.471c-0.654,1.613-3.397,8.388-4.051,9.997
		c-1.553-0.627-6.095-2.467-6.095-2.467c-0.492-0.2-1.064-0.034-1.379,0.394c-1.508,2.083-3.318,3.922-5.379,5.466l-0.379,0.495
		l0.007,0.893c0,0,1.912,4.506,2.566,6.053c-1.604,0.683-8.33,3.531-9.938,4.211c-0.651-1.544-2.565-6.053-2.565-6.053
		c-0.207-0.496-0.725-0.782-1.252-0.699c-2.54,0.405-5.126,0.428-7.672,0.063c-0.527-0.073-1.039,0.219-1.239,0.715
		c0,0-1.834,4.539-2.467,6.097c-1.621-0.654-8.388-3.396-10.004-4.049c0.633-1.56,2.472-6.094,2.472-6.094
		c0.198-0.496,0.037-1.064-0.394-1.379c-2.086-1.511-3.924-3.321-5.475-5.383c-0.316-0.425-0.889-0.581-1.377-0.371
		c0,0-4.513,1.912-6.059,2.567c-0.677-1.604-3.529-8.336-4.208-9.939c1.546-0.654,6.056-2.561,6.056-2.561l0.625-0.641l0.066-0.618
		c-0.402-2.541-0.421-5.12-0.059-7.669c0.076-0.528-0.219-1.035-0.715-1.242c0,0-4.539-1.84-6.098-2.464
		c0.654-1.613,3.397-8.385,4.052-9.998c1.553,0.625,6.095,2.464,6.095,2.464c0.492,0.204,1.064,0.039,1.377-0.394
		c1.51-2.086,3.322-3.925,5.381-5.47l0.377-0.496l-0.006-0.883c0,0-1.912-4.513-2.565-6.057c1.606-0.68,8.33-3.532,9.937-4.211
		c0.653,1.542,2.566,6.056,2.566,6.056c0.207,0.492,0.725,0.775,1.252,0.689c2.535-0.397,5.115-0.419,7.671-0.061
		c0.528,0.08,1.04-0.219,1.24-0.711c0,0,1.838-4.545,2.467-6.094C96.39,61.018,103.16,63.758,104.776,64.413z"/>
	<path fill="#4B80A9" d="M76.427,88.405c-2.459,6.073,0.483,13.009,6.559,15.467c6.069,2.461,13.007-0.478,15.464-6.552
		c2.456-6.066-0.481-13.007-6.554-15.466C85.825,79.396,78.885,82.337,76.427,88.405z M78.581,89.279
		c1.979-4.887,7.561-7.246,12.446-5.268c4.883,1.976,7.251,7.554,5.273,12.442c-1.978,4.885-7.561,7.248-12.448,5.272
		C78.967,99.746,76.601,94.162,78.581,89.279z"/>
	<path fill="#4B80A9" d="M138.007,102.942c-1.746,0-3.165,1.422-3.165,3.17c0,0,0,6.395,0,8.068
		c-2.052,0.659-4.042,1.479-5.961,2.47c-1.185-1.188-5.707-5.707-5.707-5.707l-2.242-0.93l-2.241,0.938l-12.284,12.284l-0.925,2.234
		l0.922,2.237c0.003,0.003,4.025,4.023,5.712,5.71c-0.983,1.908-1.811,3.899-2.47,5.959c-1.674,0-8.07,0-8.07,0
		c-1.747,0-3.166,1.42-3.166,3.167v17.383l0.925,2.231l2.238,0.932c0,0,6.402,0,8.076,0c0.656,2.058,1.483,4.049,2.467,5.958
		c-1.181,1.185-5.709,5.709-5.709,5.709l-0.925,2.235l0.935,2.249l12.282,12.287l2.24,0.921l2.231-0.918
		c0.004-0.003,4.027-4.033,5.711-5.717c1.922,0.992,3.912,1.814,5.961,2.466c0,1.677,0,8.075,0,8.075
		c0,1.748,1.419,3.166,3.165,3.166h17.381c1.744,0,3.163-1.418,3.163-3.166c0,0,0-6.398,0-8.075c2.049-0.651,4.04-1.474,5.963-2.466
		c1.18,1.182,5.706,5.708,5.706,5.708c1.237,1.232,3.246,1.229,4.477,0.003l12.291-12.294l0.928-2.239l-0.922-2.229
		c-0.003-0.007-4.029-4.034-5.713-5.716c0.987-1.912,1.812-3.903,2.469-5.958c1.673,0,8.072,0,8.072,0
		c1.745,0,3.166-1.419,3.166-3.163v-17.383l-0.943-2.237l-2.22-0.93c0,0-6.399,0-8.073,0c-0.656-2.049-1.479-4.042-2.467-5.959
		c1.181-1.185,5.703-5.708,5.703-5.708l0.928-2.233l-0.928-2.241l-12.291-12.292l-2.238-0.927l-2.238,0.927
		c0,0-4.521,4.522-5.706,5.707c-1.923-0.991-3.914-1.816-5.963-2.47c0-1.673,0-8.068,0-8.068c0-1.748-1.419-3.17-3.163-3.17H138.007
		z M129.284,119.98c2.411-1.344,4.978-2.408,7.629-3.16l1.182-0.336v-10.372l17.294,0.081l-0.088,9.062v1.229l1.186,0.336
		c2.643,0.748,5.207,1.813,7.624,3.16l1.074,0.6l7.335-7.336l12.169,12.29l-6.464,6.343l-0.868,0.867l0.598,1.074
		c1.343,2.416,2.407,4.982,3.16,7.631l0.332,1.181h10.29v17.298l-9.061-0.089h-1.229l-0.336,1.182
		c-0.752,2.654-1.816,5.221-3.156,7.627l-0.601,1.071l7.335,7.338l-12.285,12.163l-6.353-6.465l-0.866-0.867l-1.074,0.601
		c-2.417,1.349-4.981,2.41-7.624,3.153l-1.186,0.333v10.381l-17.293-0.086l0.087-9.063v-1.232l-1.185-0.333
		c-2.646-0.746-5.212-1.807-7.626-3.153l-1.072-0.601l-7.34,7.343l-12.163-12.293l6.468-6.349l0.872-0.87l-0.602-1.074
		c-1.343-2.394-2.403-4.96-3.163-7.625l-0.332-1.182h-10.379l0.089-17.294l9.061,0.085h1.229l0.332-1.185
		c0.757-2.667,1.82-5.233,3.16-7.624l0.604-1.074l-7.343-7.336l12.292-12.166l6.344,6.467l0.867,0.867L129.284,119.98z
		 M191.825,142.629h-0.045H191.825z M194.038,140.288l0.007,0.019l0.019,0.007l-0.286-0.638L194.038,140.288z"/>
	<path fill="#4B80A9" d="M79.051,56.331l-12.078,5.123l-1.498,1.53l0.011,2.105c0.005,0.013,1.525,3.59,2.283,5.375
		c-1.085,0.958-2.103,1.985-3.042,3.091c-1.42-0.575-5.402-2.188-5.402-2.188c-1.422-0.571-3.037,0.121-3.625,1.539l-4.924,12.159
		l0.021,2.141l1.535,1.493c0,0,3.493,1.416,5.303,2.154c-0.039,0.646-0.104,1.295-0.104,1.943c0,0.82,0.087,1.629,0.157,2.441
		c-1.465,0.62-5.301,2.243-5.301,2.243l-1.496,1.529l0.012,2.122l5.12,12.083l1.525,1.494l2.134-0.019c0,0,3.953-1.674,5.359-2.272
		c0.961,1.093,1.988,2.106,3.087,3.04c-0.573,1.42-2.185,5.402-2.185,5.402c-0.141,0.34-0.202,0.693-0.202,1.039
		c0,1.102,0.657,2.149,1.737,2.588l12.156,4.923c1.422,0.575,3.041-0.112,3.629-1.538c0-0.003,1.42-3.508,2.156-5.328
		c1.457,0.098,2.922,0.08,4.389-0.041c0.623,1.463,2.246,5.294,2.246,5.294c0.597,1.409,2.232,2.076,3.648,1.482l12.077-5.117
		l1.497-1.518l0.463-0.475l-0.457,0.463l-0.014-2.108c-0.005-0.017-1.523-3.597-2.28-5.381c1.083-0.949,2.097-1.978,3.037-3.087
		c1.42,0.575,5.401,2.188,5.401,2.188l2.131-0.019l1.499-1.521l4.92-12.16l-0.025-2.141l-1.506-1.482
		c-0.004,0-3.509-1.42-5.329-2.157c0.042-0.651,0.104-1.301,0.104-1.957c0-0.813-0.082-1.625-0.147-2.436
		c1.474-0.625,5.296-2.246,5.296-2.246l1.493-1.517l-0.014-2.135L118.734,72.4l-1.518-1.492l-2.124,0.006
		c-0.014,0.003-3.592,1.524-5.381,2.28c-0.956-1.088-1.983-2.102-3.083-3.032c0.571-1.419,2.185-5.402,2.185-5.402
		c0.14-0.34,0.203-0.695,0.203-1.042c0-1.102-0.654-2.147-1.737-2.592l-12.16-4.922l-2.126,0.019l-1.503,1.525
		c0,0-1.552,3.833-2.153,5.319c-1.473-0.096-2.938-0.073-4.393,0.044c-0.622-1.471-2.241-5.297-2.241-5.297
		C82.106,56.401,80.467,55.737,79.051,56.331z M91.916,65.359c0,0,2.115-5.22,2.417-5.964c0.774,0.312,10.528,4.259,11.293,4.57
		c-0.442,1.093-2.877,7.114-2.877,7.114l0.974,0.753c1.607,1.244,3.078,2.69,4.371,4.299l0.768,0.959c0,0,6.313-2.68,7.061-2.996
		c0.316,0.755,4.427,10.451,4.753,11.223c-1.088,0.46-7.054,2.985-7.054,2.985l0.147,1.219c0.136,1.093,0.202,2.188,0.202,3.287
		c0,0.953-0.05,1.909-0.15,2.855l-0.134,1.219c0,0,6.354,2.572,7.104,2.878c-0.32,0.784-4.263,10.524-4.573,11.292
		c-1.102-0.444-7.105-2.873-7.105-2.873l-0.752,0.968c-1.267,1.626-2.715,3.095-4.302,4.372l-0.96,0.769
		c0,0,2.678,6.319,2.991,7.061c-0.72,0.305-10.45,4.427-11.22,4.75c-0.46-1.087-2.992-7.056-2.992-7.056l-1.216,0.155
		c-2.047,0.25-4.111,0.267-6.135,0.044l-1.224-0.134c0,0-2.575,6.36-2.877,7.111c-0.772-0.313-10.521-4.258-11.294-4.573
		c0.441-1.093,2.879-7.107,2.879-7.107l-0.972-0.753c-1.61-1.251-3.081-2.7-4.376-4.303l-0.77-0.956c0,0-6.313,2.671-7.057,2.987
		c-0.33-0.776-4.433-10.46-4.758-11.218c1.045-0.444,7.072-2.998,7.072-2.998l-0.16-1.216c-0.137-1.087-0.207-2.186-0.207-3.287
		c0-0.946,0.051-1.897,0.152-2.847l0.131-1.216c0,0-6.35-2.575-7.099-2.879c0.315-0.781,4.259-10.523,4.569-11.293
		c0.75,0.302,7.105,2.878,7.105,2.878l0.756-0.969c1.264-1.627,2.711-3.1,4.306-4.379l0.959-0.772c0,0-2.677-6.307-2.995-7.053
		c0.76-0.321,10.449-4.431,11.221-4.754c0.46,1.085,2.987,7.06,2.987,7.06l1.222-0.153c2.012-0.254,4.075-0.27,6.139-0.05
		l1.219,0.13L91.916,65.359z M123.953,98.403"/>
</g>
</svg>
