<?xml version="1.0" encoding="UTF-8" standalone="no"?>
<!-- Created with Inkscape (http://www.inkscape.org/) -->

<svg
   xmlns:dc="http://purl.org/dc/elements/1.1/"
   xmlns:cc="http://creativecommons.org/ns#"
   xmlns:rdf="http://www.w3.org/1999/02/22-rdf-syntax-ns#"
   xmlns:svg="http://www.w3.org/2000/svg"
   xmlns="http://www.w3.org/2000/svg"
   xmlns:xlink="http://www.w3.org/1999/xlink"
   xmlns:sodipodi="http://sodipodi.sourceforge.net/DTD/sodipodi-0.dtd"
   xmlns:inkscape="http://www.inkscape.org/namespaces/inkscape"
   id="svg2828"
   version="1.1"
   inkscape:version="0.47 r22583"
   width="48"
   height="50"
   sodipodi:docname="i_hl.svg">
  <metadata
     id="metadata2834">
    <rdf:RDF>
      <cc:Work
         rdf:about="">
        <dc:format>image/svg+xml</dc:format>
        <dc:type
           rdf:resource="http://purl.org/dc/dcmitype/StillImage" />
        <dc:title />
      </cc:Work>
    </rdf:RDF>
  </metadata>
  <defs
     id="defs2832">
    <inkscape:perspective
       sodipodi:type="inkscape:persp3d"
       inkscape:vp_x="0 : 0.5 : 1"
       inkscape:vp_y="0 : 1000 : 0"
       inkscape:vp_z="1 : 0.5 : 1"
       inkscape:persp3d-origin="0.5 : 0.33333333 : 1"
       id="perspective2836" />
    <inkscape:perspective
       id="perspective2848"
       inkscape:persp3d-origin="0.5 : 0.33333333 : 1"
       inkscape:vp_z="1 : 0.5 : 1"
       inkscape:vp_y="0 : 1000 : 0"
       inkscape:vp_x="0 : 0.5 : 1"
       sodipodi:type="inkscape:persp3d" />
    <filter
       id="filter2882"
       inkscape:label="Colorize"
       inkscape:menu="Color"
       inkscape:menu-tooltip="Blend image or object with a flood color and set lightness and contrast"
       width="1"
       height="1"
       y="0"
       x="0"
       color-interpolation-filters="sRGB">
      <feColorMatrix
         id="feColorMatrix2884"
         values="1 0 0 0 0 1 0 0 0 0 1 0 0 0 0 0 0 0 0 1 "
         type="matrix"
         result="r"
         in="SourceGraphic" />
      <feColorMatrix
         id="feColorMatrix2886"
         values="0 1 0 0 0 0 1 0 0 0 0 1 0 0 0 0 0 0 0 1 "
         type="matrix"
         result="g"
         in="SourceGraphic" />
      <feColorMatrix
         id="feColorMatrix2888"
         values="0 0 1 0 0 0 0 1 0 0 0 0 1 0 0 0 0 0 0 1 "
         type="matrix"
         result="b"
         in="SourceGraphic" />
      <feBlend
         id="feBlend2890"
         in2="g"
         result="minrg"
         in="r"
         mode="darken" />
      <feBlend
         id="feBlend2892"
         in2="b"
         result="p"
         in="minrg"
         mode="darken" />
      <feBlend
         id="feBlend2894"
         in2="g"
         result="maxrg"
         in="r"
         mode="lighten" />
      <feBlend
         id="feBlend2896"
         in2="b"
         result="q"
         in="maxrg"
         mode="lighten" />
      <feComponentTransfer
         id="feComponentTransfer2898"
         result="q2"
         in="q">
        <feFuncR
           id="feFuncR2900"
           slope="0"
           type="linear" />
      </feComponentTransfer>
      <feBlend
         id="feBlend2902"
         in2="q2"
         result="pq"
         in="p"
         mode="lighten" />
      <feColorMatrix
         id="feColorMatrix2904"
         values="-1 1 0 0 0 -1 1 0 0 0 -1 1 0 0 0 0 0 0 0 1 "
         type="matrix"
         result="qminp"
         in="pq" />
      <feColorMatrix
         id="feColorMatrix2906"
         type="luminanceToAlpha"
         result="result1"
         in="qminp" />
      <feComposite
         id="feComposite2908"
         in2="qminp"
         k2="0"
         k3="0"
         k1="1"
         operator="arithmetic"
         in="result1"
         result="result3" />
      <feComposite
         id="feComposite2910"
         in2="SourceGraphic"
         in="result3"
         operator="in"
         result="fbSourceGraphic" />
      <feFlood
         id="feFlood2912"
         flood-color="rgb(255,204,0)"
         result="result1"
         in="result3" />
      <feComposite
         id="feComposite2914"
         in2="fbSourceGraphic"
         operator="in"
         result="fbSourceGraphic" />
      <feColorMatrix
         result="fbSourceGraphicAlpha"
         in="fbSourceGraphic"
         values="0 0 0 -1 0 0 0 0 -1 0 0 0 0 -1 0 0 0 0 1 0"
         id="feColorMatrix3862" />
      <feColorMatrix
         id="feColorMatrix3864"
         values="1"
         in="fbSourceGraphic"
         type="saturate"
         result="result2" />
      <feFlood
         id="feFlood3866"
         flood-color="rgb(254,102,0)"
         flood-opacity="1"
         result="result1" />
      <feBlend
         id="feBlend3868"
         in2="result2"
         mode="multiply"
         in="result1"
         result="result3" />
      <feComposite
         id="feComposite3870"
         in2="fbSourceGraphic"
         operator="in"
         k2="1"
         result="fbSourceGraphic" />
      <feColorMatrix
         result="fbSourceGraphicAlpha"
         in="fbSourceGraphic"
         values="0 0 0 -1 0 0 0 0 -1 0 0 0 0 -1 0 0 0 0 1 0"
         id="feColorMatrix3872" />
      <feColorMatrix
         id="feColorMatrix3874"
         values="1"
         in="fbSourceGraphic"
         type="saturate"
         result="result2" />
      <feFlood
         id="feFlood3876"
         flood-color="rgb(254,102,0)"
         flood-opacity="1"
         result="result1" />
      <feBlend
         id="feBlend3878"
         in2="result2"
         mode="multiply"
         in="result1"
         result="result3" />
      <feComposite
         id="feComposite3880"
         in2="fbSourceGraphic"
         operator="in"
         k2="1"
         result="result4" />
    </filter>
  </defs>
  <sodipodi:namedview
     pagecolor="#ffffff"
     bordercolor="#666666"
     borderopacity="1"
     objecttolerance="10"
     gridtolerance="10"
     guidetolerance="10"
     inkscape:pageopacity="0"
     inkscape:pageshadow="2"
     inkscape:window-width="1680"
     inkscape:window-height="925"
     id="namedview2830"
     showgrid="false"
     inkscape:zoom="4.72"
     inkscape:cx="-21.161017"
     inkscape:cy="35.00995"
     inkscape:window-x="-9"
     inkscape:window-y="-9"
     inkscape:window-maximized="1"
     inkscape:current-layer="svg2828" />
  <image
     xlink:href="file:///D:/GpsMid/icon/main/big_i_bg.png"
     width="48"
     height="48"
     id="image2826"
     x="0.57627249"
     y="-0.48304993"
     style="opacity:0.5;fill:#ffff00;fill-opacity:0.57099699;filter:url(#filter2882)" />
  <g
     id="g3983"
     transform="translate(145.33898,45.550847)">
    <path
       id="path3966"
       d="m -139.77119,1.440678 c 0,-0.3107352 0.14125,-0.4237288 0.52966,-0.4237288 0.42373,0 0.52967,-0.10593225 0.52967,-0.52966106 0,-0.49434958 -0.0706,-0.52966102 -1.05933,-0.52966102 -0.9887,0 -1.05932,0.03531144 -1.05932,0.52966102 0,0.48650423 -0.0777,0.52966106 -0.95339,0.52966106 -0.8757,0 -0.95339,-0.0431568 -0.95339,-0.52966106 0,-0.38841738 -0.11299,-0.52966102 -0.42373,-0.52966102 -0.36095,0 -0.42373,-0.14124365 -0.42373,-0.95338983 0,-0.81214619 0.0628,-0.95338979 0.42373,-0.95338979 0.36723,0 0.42373,-0.1412437 0.42373,-1.0593221 0,-0.9180784 -0.0565,-1.059322 -0.42373,-1.059322 -0.31073,0 -0.42373,0.1412436 -0.42373,0.529661 0,0.4237288 -0.10593,0.529661 -0.52966,0.529661 l -0.52966,0 0,-18.9618644 c 0,-18.820621 0.003,-18.961864 0.42373,-18.961864 0.39881,0 0.42373,0.141243 0.42373,2.401972 0,1.321084 0.063,5.134644 0.14004,8.474576 0.13152,5.703408 0.16372,6.072604 0.52966,6.072604 0.32053,0 0.38962,-0.169061 0.38962,-0.95339 l 0,-0.95339 22.0339,0 22.033898,0 0,0.95339 c 0,0.787379 0.06845,0.95339 0.393094,0.95339 0.562849,0 0.662923,-1.491163 0.664722,-9.904661 0.0015,-6.902746 0.01003,-7.044491 0.425235,-7.044491 0.420572,0 0.423729,0.141243 0.423729,18.961864 l 0,18.9618644 -0.95339,0 -0.95339,0 0,1.0593221 c 0,0.98870123 -0.03531,1.05932199 -0.529661,1.05932199 -0.388417,0 -0.529661,0.11299365 -0.529661,0.42372882 0,0.38337288 -0.141243,0.42372881 -1.483046,0.42372881 -1.44068,0 -1.48306,0.01512712 -1.48306,0.52966102 0,0.38841737 0.113,0.52966106 0.42373,0.52966106 0.28249,0 0.42373,0.1412436 0.42373,0.4237288 0,0.420572 -0.14124,0.4237288 -18.96186,0.4237288 -18.82062,0 -18.96187,-0.00316 -18.96187,-0.4237288 z m -1.90678,-1.90677969 c 0,-0.31073517 -0.14124,-0.42372882 -0.52966,-0.42372882 -0.38842,0 -0.52966,0.11299365 -0.52966,0.42372882 0,0.31073516 0.14124,0.42372881 0.52966,0.42372881 0.38842,0 0.52966,-0.11299365 0.52966,-0.42372881 z"
       style="opacity:0.5;fill:#ffff00;fill-opacity:0.57099699" />
  </g>
  <path
     style="opacity:0.5;fill:#ffff00;fill-opacity:0.57099699"
     d="m 1.8927331,18.780296 c -0.0762,-1.4166 -0.1385,-4.166599 -0.1385,-6.11111 0,-1.94451 -0.0621,-4.5513635 -0.13812,-5.7930075 -0.12266,-2.004582 -0.182,-2.257534 -0.52967,-2.257534 -0.27639005,0 -0.39153005,-0.155762 -0.39153005,-0.529661 0,-0.377792 0.1146,-0.529661 0.39968005,-0.529661 0.31126,0 0.43129,-0.210896 0.54264,-0.95339 0.11291,-0.752941 0.22933,-0.95339 0.55371,-0.95339 0.29689,0 0.41075,-0.146823 0.41075,-0.529661 0,-0.48650404 0.0777,-0.52966104 0.95339,-0.52966104 0.87571,0 0.95339,-0.04316 0.95339,-0.529661 0,-0.447269 0.0989,-0.529661 0.63559,-0.529661 0.53673,0 0.6356,0.08239 0.6356,0.529661 l 0,0.529661 18.4321999,0 18.4322,0 0,-0.529661 c 0,-0.49435 0.0706,-0.529661 1.05933,-0.529661 0.9887,0 1.05932,0.03531 1.05932,0.529661 0,0.486503 0.0777,0.529661 0.953389,0.529661 0.875705,0 0.953389,0.04316 0.953389,0.52966104 0,0.377791 0.114598,0.529661 0.399674,0.529661 0.311263,0 0.431299,0.210896 0.542642,0.95339 0.112911,0.75294 0.229329,0.95339 0.553716,0.95339 0.312204,0 0.410748,0.147729 0.410748,0.615758 0,0.494939 -0.07695,0.595636 -0.392178,0.513202 -0.374396,-0.09791 -0.398828,0.246437 -0.53882,7.5939865 -0.147538,7.743735 -0.231542,9.073663 -0.573127,9.073663 -0.10218,0 -0.246765,-0.381356 -0.321296,-0.847458 l -0.135515,-0.847458 -21.979742,0 -21.9797399,0 -0.13552,0.847458 c -0.24681,1.543511 -0.48729,0.881329 -0.6276,-1.728178 l 0,0 z M 45.610169,3.1355935 c 0,-0.282486 -0.141243,-0.423729 -0.423726,-0.423729 -0.30979,0 -0.42373,-0.141243 -0.42373,-0.525239 l 0,-0.52524 -18.9089,-0.05739 c -10.39989,-0.03156 -19.4570999,-0.02473 -20.1271199,0.01519 -1.03191,0.06148 -1.21822,0.134379 -1.21822,0.476695 0,0.262878 -0.14809,0.404121 -0.42373,0.404121 -0.31073,0 -0.42373,0.141243 -0.42373,0.529661 l 0,0.529661 20.9745799,0 c 20.833333,0 20.974576,-0.0029 20.974576,-0.423729 z"
     id="path3968" />
  <a
     id="a3979"
     transform="translate(145.33898,45.550847)">
    <path
       id="path3970"
       d="m -143.21689,-25.26196 c -0.0685,-0.287066 -0.19248,-3.557035 -0.27555,-7.266597 -0.0856,-3.823795 -0.22866,-6.622192 -0.33029,-6.461865 -0.12077,0.190536 -0.17926,0.07544 -0.17926,-0.352798 0,-0.503544 0.046,-0.569569 0.22148,-0.317797 0.16266,0.233397 0.18237,0.120866 0.0742,-0.423719 -0.081,-0.407834 -0.3399,-0.876451 -0.57535,-1.041372 -0.42792,-0.299722 -0.42792,-0.300009 -0.004,-0.642955 0.23304,-0.188704 0.47864,-0.482798 0.54578,-0.653543 0.0947,-0.240872 0.12581,-0.227355 0.13879,0.06032 0.0101,0.223944 0.18452,0.370763 0.44045,0.370763 0.35933,0 0.42373,-0.141243 0.42373,-0.929334 l 0,-0.929334 0.94127,-0.141152 c 0.90247,-0.135335 0.94395,-0.173432 1.00635,-0.924479 0.0563,-0.67695 0.13702,-0.783329 0.59475,-0.783329 0.38692,0 0.51289,0.09993 0.46741,0.370763 -0.0589,0.350826 0.96488,0.370763 19.03953,0.370763 l 19.10178,0 -0.10125,-0.529661 c -0.11638,-0.608834 -0.14345,-0.593431 0.56773,-0.323041 0.2989,0.113642 0.54345,0.351989 0.54345,0.529661 0,0.199983 0.19421,0.323041 0.50983,0.323041 0.405514,0 0.487152,0.08669 0.399014,0.423729 -0.08996,0.344002 -0.0065,0.423729 0.443564,0.423729 0.474724,0 0.55437,0.09132 0.55437,0.635593 0,0.497623 0.09342,0.635593 0.430378,0.635593 0.236709,0 0.492612,0.166843 0.568675,0.370763 0.07606,0.203919 0.302681,0.489221 0.503594,0.634005 0.432712,0.311825 0.307095,1.14464 -0.146405,0.970616 -0.230057,-0.08828 -0.296919,0.122712 -0.296919,0.936972 0,0.578001 -0.04312,1.660764 -0.09581,2.406142 -0.07086,1.00235 -0.05054,1.16215 0.07804,0.613705 0.145656,-0.621264 0.174949,-0.501003 0.180622,0.741526 0.0043,0.938835 -0.04893,1.288688 -0.145029,0.95339 -0.08349,-0.291314 -0.212187,1.84106 -0.285992,4.738607 -0.0738,2.897548 -0.191854,5.325931 -0.262328,5.396407 -0.299549,0.299549 -0.522562,-0.607267 -0.525585,-2.137133 l -0.0032,-1.641949 -22.033899,0 -22.0339,0 -0.0149,1.641949 c -0.008,0.903072 -0.0881,1.829152 -0.17754,2.057955 -0.1508,0.3857 -0.17172,0.377984 -0.28717,-0.105932 l 0,0 z m 43.416644,-17.060873 c 0.07756,-0.202116 -0.04895,-0.454646 -0.324444,-0.647607 -0.24837,-0.173964 -0.45158,-0.442714 -0.45158,-0.59722 0,-0.374611 -12.81486,-0.602402 -28.49576,-0.506527 l -11.44068,0.06995 -0.58263,0.592257 c -0.32044,0.325742 -0.58263,0.778602 -0.58263,1.006356 0,0.408087 0.30307,0.414099 20.8753,0.414099 18.73873,0 20.888303,-0.03391 21.002424,-0.331308 l 0,0 z"
       style="opacity:0.5;fill:#ffff00;fill-opacity:0.57099699" />
  </a>
  <path
     style="opacity:0.5;fill:#ffff00;fill-opacity:0.57099699"
     d="m 11.447033,3.3989025 c -8.1339599,-0.061 -8.1176699,-0.05841 -7.0086499,-1.110767 l 0.55819,-0.529661 19.3004399,0 c 10.61525,0 19.56263,0.07332 19.88307,0.162935 0.32045,0.08961 0.58263,0.269782 0.58263,0.400372 0,0.130591 0.16669,0.359327 0.37043,0.508303 0.20373,0.148975 0.322908,0.313095 0.264829,0.364711 -0.143569,0.127592 -24.570989,0.274445 -33.950939,0.204107 z"
     id="path3974" />
</svg>
