<?xml version="1.0" encoding="utf-8"?>
<!-- Generator: Adobe Illustrator 12.0.1, SVG Export Plug-In . SVG Version: 6.00 Build 51448)  -->
<!DOCTYPE svg PUBLIC "-//W3C//DTD SVG 1.0//EN" "http://www.w3.org/TR/2001/REC-SVG-20010904/DTD/svg10.dtd" [
	<!ENTITY ns_extend "http://ns.adobe.com/Extensibility/1.0/">
	<!ENTITY ns_ai "http://ns.adobe.com/AdobeIllustrator/10.0/">
	<!ENTITY ns_graphs "http://ns.adobe.com/Graphs/1.0/">
	<!ENTITY ns_vars "http://ns.adobe.com/Variables/1.0/">
	<!ENTITY ns_imrep "http://ns.adobe.com/ImageReplacement/1.0/">
	<!ENTITY ns_sfw "http://ns.adobe.com/SaveForWeb/1.0/">
	<!ENTITY ns_custom "http://ns.adobe.com/GenericCustomNamespace/1.0/">
	<!ENTITY ns_adobe_xpath "http://ns.adobe.com/XPath/1.0/">
	<!ENTITY ns_svg "http://www.w3.org/2000/svg">
	<!ENTITY ns_xlink "http://www.w3.org/1999/xlink">
]>
<svg  version="1.0" id="Ebene_3" xmlns:x="&ns_extend;" xmlns:i="&ns_ai;" xmlns:graph="&ns_graphs;"
	 xmlns="&ns_svg;" xmlns:xlink="&ns_xlink;" width="196.708" height="188.621" viewBox="0 0 196.708 188.621"
	 overflow="visible" enable-background="new 0 0 196.708 188.621" xml:space="preserve">
<metadata><?xpacket begin="﻿" id="W5M0MpCehiHzreSzNTczkc9d"?>
<x:xmpmeta xmlns:x="adobe:ns:meta/" x:xmptk="3.1.1-111">
   <rdf:RDF xmlns:rdf="http://www.w3.org/1999/02/22-rdf-syntax-ns#">
      <rdf:Description rdf:about=""
            xmlns:dc="http://purl.org/dc/elements/1.1/">
         <dc:format>image/svg+xml</dc:format>
         <dc:title>
            <rdf:Alt>
               <rdf:li xml:lang="x-default">Location_receiver</rdf:li>
            </rdf:Alt>
         </dc:title>
      </rdf:Description>
      <rdf:Description rdf:about=""
            xmlns:xap="http://ns.adobe.com/xap/1.0/"
            xmlns:xapGImg="http://ns.adobe.com/xap/1.0/g/img/">
         <xap:CreatorTool>Adobe Illustrator CS2</xap:CreatorTool>
         <xap:CreateDate>2009-10-23T08:30:36+02:00</xap:CreateDate>
         <xap:ModifyDate>2009-10-23T08:30:36+02:00</xap:ModifyDate>
         <xap:MetadataDate>2009-10-23T08:30:36+02:00</xap:MetadataDate>
         <xap:Thumbnails>
            <rdf:Alt>
               <rdf:li rdf:parseType="Resource">
                  <xapGImg:width>256</xapGImg:width>
                  <xapGImg:height>248</xapGImg:height>
                  <xapGImg:format>JPEG</xapGImg:format>
                  <xapGImg:image>/9j/4AAQSkZJRgABAgEASABIAAD/7QAsUGhvdG9zaG9wIDMuMAA4QklNA+0AAAAAABAASAAAAAEA&#xA;AQBIAAAAAQAB/+4ADkFkb2JlAGTAAAAAAf/bAIQABgQEBAUEBgUFBgkGBQYJCwgGBggLDAoKCwoK&#xA;DBAMDAwMDAwQDA4PEA8ODBMTFBQTExwbGxscHx8fHx8fHx8fHwEHBwcNDA0YEBAYGhURFRofHx8f&#xA;Hx8fHx8fHx8fHx8fHx8fHx8fHx8fHx8fHx8fHx8fHx8fHx8fHx8fHx8fHx8f/8AAEQgA+AEAAwER&#xA;AAIRAQMRAf/EAaIAAAAHAQEBAQEAAAAAAAAAAAQFAwIGAQAHCAkKCwEAAgIDAQEBAQEAAAAAAAAA&#xA;AQACAwQFBgcICQoLEAACAQMDAgQCBgcDBAIGAnMBAgMRBAAFIRIxQVEGE2EicYEUMpGhBxWxQiPB&#xA;UtHhMxZi8CRygvElQzRTkqKyY3PCNUQnk6OzNhdUZHTD0uIIJoMJChgZhJRFRqS0VtNVKBry4/PE&#xA;1OT0ZXWFlaW1xdXl9WZ2hpamtsbW5vY3R1dnd4eXp7fH1+f3OEhYaHiImKi4yNjo+Ck5SVlpeYmZ&#xA;qbnJ2en5KjpKWmp6ipqqusra6voRAAICAQIDBQUEBQYECAMDbQEAAhEDBCESMUEFURNhIgZxgZEy&#xA;obHwFMHR4SNCFVJicvEzJDRDghaSUyWiY7LCB3PSNeJEgxdUkwgJChgZJjZFGidkdFU38qOzwygp&#xA;0+PzhJSktMTU5PRldYWVpbXF1eX1RlZmdoaWprbG1ub2R1dnd4eXp7fH1+f3OEhYaHiImKi4yNjo&#xA;+DlJWWl5iZmpucnZ6fkqOkpaanqKmqq6ytrq+v/aAAwDAQACEQMRAD8A9U4q7FXYq7FXYq7FXYq7&#xA;FXYq7FXYq7FXYq7FXYq7FUk8zed/KfliD1td1OCxqOSRO3KVh4pEnKRvoXFXkHmT/nK3R4GaLy7p&#xA;Et4wqBdXjiCOviI05uw+ZXFXm+t/85GfmhqRYQ3sOmRN/uuzhUGn+vL6rj6GxViF15u89a1IVuNX&#xA;1K/Y/wC6zPNIKEdAgJAH0Yqgm0PzDLJyewu3durNFISfmSMVXJoPmaGTlHp94jj9pIpO/uoxVMbb&#xA;zn+YmhSj0tX1OxetfTeaZVO/eNzxP0jFWZaH/wA5LfmVp7KL2W21aIbFbmFUens8Hpb+5BxV6t5S&#xA;/wCcnPJeqskGuQS6Hcsaeo37+2r/AMZEAdfpSg8cVet2GoWGo2kd5YXMV3aTDlFcQOskbD2ZSQcV&#xA;RGKuxV2KuxV2KuxV2KuxV2KuxV2KuxV2KuxV2KuxV2KuxV2KuxVLtf8AMWieX9Nk1PWbyOysovtS&#xA;yHqaVCooqzsabKoJxV84fmF/zkzrepNJY+UY20ux+yb+QK13IP8AJHxJED9Le4xV4+sGsaxdSXMj&#xA;SXU8rEzXUzliW7lpHNSd/niqd2PkyEgG8nLH+SLYA/6zAk/cMVZHZaBo8IpHZxkk7F19Q19i/I4q&#xA;n0EMhNAtOO1DtT78sGGZ5AuDl7T00DUskAR/SF/JFRgg0INRlo0eXu+5wZe0ehBrxPsl+pFCRFU1&#xA;P4E4fyeXu+5H+iXQ/wCqf7GX/EqEqGRSQKg9jQfgcgdNkHQuRj7c0c+WSPx2++mN6l5a0e5UtJZI&#xA;pFayRr6ZqfEpSv05VKEo8xTnYdTiy/RKMvcQfuYlqfkt46vYzc1/31LQN9DCgP0gZFvUvLPnLzj5&#xA;L1AzaReS2MhNZrZvihlHT44mqjezdfA4q+lfyx/5yB8v+ami0zWFTSNdeiopb/Rp2O1InbdWJ/Yb&#xA;6C2KvWMVdirsVdirsVdirsVdirsVdirsVdirsVdirsVdirsVdirE/wAxvzI0LyLo317UD613NVbH&#xA;T0IEkzjr/qov7TdvnQYq+P8Azp578zedtY+vatMZCCRaWUVRDCpP2Y0qfpJ3Pc4qp6boMakSXdHf&#xA;tEPsj5+P6vnirNvLvljWdZk9LTLVpETZpNkiQDsWNFHy65KMDLk0Z9TDELkXoWm/lBIihr++Xn/J&#xA;CpZaf6zFD+GZmPTxH1bvN6ztjNKxiqHmRxH9AH+yZBD+Xmgw0o0zUNSOSgV+ha5lwkI8gA87qsU8&#xA;x/eZJy952+VbfBEDyfoCihtyx8TI9fwIyzxJOJ+SxDopS+UNDNOMTJT+V23+8nJDIWjJpIdNkHJ5&#xA;L0uh4yzKe26kf8RyfGXHOliOpS+48mSqCYLlWPZXUr+ILfqyYk48sRCU3eiajbg+pCWTpyT4h+G/&#xA;35JpukqnsbWavqRip6sNjt8sonpscuYdtpu3NXhPpyEjuPqH28vgkOseU0uYiEpKvURvsw/1WzBy&#xA;9nkbxL1Wg9sIS9OePD/Sjy+XP73nuraDc2MjfCxRa8lYUZQPHxHuM10okGi9jhzQyREoESieoex/&#xA;k1/zkDPpzweX/N87TacaR2Wqv8UkHYJOxPxR+DdV71H2Q2PphHSRFdGDo4DKymoIO4IIxVvFXYq7&#xA;FXYq7FXYq7FXYq7FXYq7FXYq7FXYq7FWO+ffO+k+TPLlxrOonkU+C0tQQHnnYHhGv3VJ7CpxV8We&#xA;afNGu+btfm1XVJTPd3BpGg2SKME8Y4x+yi/2nepxVX06xjtwABzlbZn/AID2xV7J5D/KCa5SLUfM&#xA;StDAaNFp+6yOOxlPVB/k9fll+PDe5dRrO0uH0w597122tLWzt0trWJIIIxRIowFUD2AzLAp5/JMy&#xA;Nk2XNkw40lNskGmSk2TDjyUnyQaJLUiWTYuFPYYTKmEMQl1pV/Rav/uwj6Mj49dHI/kwS/iWS+X5&#xA;GU+nMCewYED7xXCNUBzDVk7AlIemQ+I/tY1rXliZS0lxblQelxHuPpI/42zLx5YT5Hd57V6HVaU3&#xA;OPo7+Y/Z8WKXunz2rfF8UZPwyDp9PgclKNMMWYTGyVahplrfR8ZVo4HwSD7S5j5sEcgou27N7Uza&#xA;SfFjO3UdD+O95j5m8sXOnStIqfu+p4j4SP5l/iO3yzSZsEsZovqXZnamLWY+OHPqOo/HQvXv+cd/&#xA;zfeCeDyXr09beU8NFupD9hz0tmJ/Zb/dfgfh7ilLsX0hirsVdirsVdirsVdirsVdirsVdirsVdir&#xA;sVWTzwwQyTzusUMSl5ZHIVVVRVmYnYADFXxb+cH5j3HnfzTJcRsy6NZFodLgO3wV+KVh/NIRU+Ao&#xA;O2Ksb060ZKUUmaT4eIG+52UDrXFX0T+Vv5VJpMUWs67EH1RgHtrVxUW46hmH+/P+I/Ppk48dbl0m&#xA;t1vF6Y8vvemtmQHTyUmyQaZKTZINElNskGmSk2TDjyUnyQaJKLZMONJfb37wsA/xx/iPlkZYgeTd&#xA;g18sZqW8U7gkSRA6MGU9CMw5Ag0XpcGSM4iUTYRSAEUO4PUZUXPiLSDXvKMFxE8tkgDEfvLb9lh/&#xA;k+B9sztPra9M+Xe8t2x7MCQ8XTDhmP4eh93cfLl7uvMdT0t7RyygmKtDXqp8DmfKNe55HFl4tjtI&#xA;JVd2kF3A0My8kb7wfEZTkxiYoux0WtyabIMmM0R9vkfJ5N5m0KfRNRBQsIWPOCUbUI32I6e2aLPh&#xA;OOVF9Y7L7Tx6zFxx2P8AEO4/jkX1r+Sn5gnzn5OimunDazp5FtqQ2qzAfBNT/ixd/wDWDZS7Jn+K&#xA;uxV2KuxV2KuxV2KuxV2KuxV2KuxV2KvE/wDnJrz82laBD5WsZON7rA53pU0ZLRTTjt/v1xT/AFQw&#xA;74q+Y7OIM/M9F6fP+zFXv35G/lwrJH5q1aKorXSYHG22xnIP/Cff4Zdih1dXrtT/AAD4va2zJDpi&#xA;ptkg0yUmyQaZKTZINElNskGmScadokRjWa6HIsKrH0AHvmJl1JuovRdn9iwMRPLuT0/WmP6PsKU+&#xA;rRf8Av8ATMfxZ95dz/J+n/1OH+lCU6v5eiMTTWY4uoq0XUEDw98ysGrN1J57tb2fhwGeEUR/D3+7&#xA;zYrJm1Dwc1XTtRa0mAc/uHPxjw/yhkMuLjHm39n9oHBOj9B5+XmyqMggEGoPQ5qy95jNiwiEysub&#xA;BjfnHy+ksLahAgJApdRgV5L05/R39s2Oh1O/BLl0eN9q+xLj+axD1R+sDqP53w6+W/TflWo2JtZq&#xA;DeJ90P6x9GbCUaLx+DLxx82O+adHXVdHmgC1nQepbnuHXenQ/a6Zi6nDxwrr0d72J2idLqBK/RLa&#xA;Xu7/AIc0l/IHzhJ5d/MK0t5X42OskWF0p6B3P7hvmJaD5E5oH119jYq7FXYq7FXYq7FXYq7FXYq7&#xA;FXYq7FXEgCp6Yq+GfzP81v5p886rq4fnbPMYbLeoFvD8EVPDko5H3JxVG/ll5NfzR5ptNKIP1OOs&#xA;+oSL2hQjnuP5yQgPvkoxstOfLwRt9dxQQwQxwQoI4YlCRxqKKqqKAAeAGZQefmbabJhoKm2SDTJS&#xA;bJBpkpNkg0SWEgEE7juMk1Hmy9WVlDKaqwqCPA5qSKfQ4yEgCORbwMmmZUUsxoqgliegAwgWxlIR&#xA;BJ5B5zMQWYgUBJoPbOhi+N5iCSRyQkvQ5aHX5GQ+WL/17drZz+8tyAPdD0+7pmv1uLhPF3vX+zOv&#xA;8XGcR+rH/uTy+XL5MgTMAvXwV1UMCrCqkUIPQg5AlyREEUeTynzjoZtrm4tUBoh9W291O4Hevdfn&#xA;nQ4cvi4xLq+N9p6H8jrJYv4DvH+qeXy5fBhWFDyTzjZ/ozzNK9sTHzK3MRXYqzb7U8GBpmh1ePhy&#xA;HzfWPZ3VnNo4k/VH0n4cvsp9s+UdcXXvK2layKA39rFO6jorugLr/sWqMxneJvirsVdirsVdirsV&#xA;dirsVdirsVdirFPzW1xtD/LrX9RRuMqWrQwt3ElwRAhHyaQHFXw7DT1ASaU3B67jcYq+nv8AnHfy&#xA;uNO8pSa1MlLnWJKxk9Rbwkog/wBk/I++2X4xs6nXZLlXc9UbLg66Sm2SDSVNskGmSk2SDTJSbJBo&#xA;kptkg0yRljrM1qvpuvqxdhWhHyOVZNOJb8i7DQ9sTwDhI4ofaEefM1iB/dy1+S/81ZR+Tl3h2p9p&#xA;MA/hn9n60o1XXp7tDDGvpQH7QrVm+ZzKwaUQNncvP9qdu5NRHgiOGH2lJJMzg8xNCy9DlgcHIqeX&#xA;bj0dbjFaLKDG30io/wCGAyOrheI+Td7P6jw9dHuncf1faAz1M0RfWIIhMgXKgxX8wLQenaXgAqC0&#xA;Lnua/Ev3UbNn2Xk3lH4vCe3uk9OLMPOJ+8f775vIrqP0rmWMCgViB8q7ZnkPIwlYBedfmhaUlsbs&#xA;D7SvEx+RDL+s5qu0Y7gvoHsZnuOTH3ES+ex+4Pob/nHDUWvPyssYmNTYz3FtX29Qyj8Jc1r270/F&#xA;XYq7FXYq7FXYq7FXYq7FXYq7FXkf/OUF69v+WqQqTS81CCBqeASSbf6YsVfKNojyTCJN2k+EDuT1&#xA;AHuSKYq+5NB0qLSND0/S4v7uxt4oAR39NApP0kVzKAdBklxElFtkw48lNskGkqbZINMlJskGmSk2&#xA;SDRJTbJBpkpNkw48lfTtNe+nKV4xpvI/z6Ae5yvLmEB5uX2d2dLVTq6iOZTWfytZtERFI6yU2ZiC&#xA;K+4oMxo62V7jZ3ub2YwmPolIS89/nsxS6hkhleKQUdCVYe4zaQkCLDwWqwyxzMJfVE0gpehy4Osy&#xA;IeyNNUtiO00Z/wCGGWZP7s+4uHozWrxn+nH7w9JTOcL7VBEJkC5UEm87xK+gsx6xSo6/M1X/AI2z&#xA;L7OlWX3h5z20xCWgJP8ADOJ/R+l41rSFb9mP7aqw+gcf4ZuZ83zTTG4BgP5nIDottJ3W5Cj5NG5/&#xA;41zXdoD0D3va+x0v8JkP9rP+6i9b/wCcUpq+RdUhp9jVHflXrzt4RSn+wzTvo72rFXYq7FXYq7FX&#xA;Yq7FXYq7FXYq7FXin/OVqSHyNpTg/u11NFYV/aNvMV2+g4q+e/y9tIrvz35ft5QDE+oW3qKRUFRK&#xA;pK/SBTDHm15TUT7n2w2ZQdFJTbJBpkptkg0lTbJBpkpNkg0yUmyQaJKbZINMlJsmHHkmvly6ijml&#xA;hchWloUJ7kV2/HMXVwJAI6O+9ntTCE5QlsZVXw6Mgd0RS7sFVdyx2AGYAFvXTmIiyaAYFq9ylzfz&#xA;zp9h2+H5AUr9NM3uCBjAAvk/a2pGfUTnHkT92yVy9DmSHR5ENZAnVLcDqZox/wAMMsyfQfcXD0Yv&#xA;VYx/Tj94elJnOF9qgiEyBcqCT+dpFTQHU9ZJEVfnXl+pcy+zheX4PO+2eQR7PIP8Uoj9P6Hjuv8A&#xA;+9cf/GMf8SbN1k5vmWk+h57+ZzqNEtk/aNypHyEb1/Xmt7Q+ge97X2OH+FSP+1n/AHUXpv8AzigH&#xA;XRddBHwPLbyK3uRKhH0cM076Q94xV2KuxV2KuxV2KuxV2KuxV2KuxV5V/wA5Maebr8r5pwKiwvLe&#xA;4J8AxMFf+S2Kvmv8smVfzD8uFiAP0hbip23MgA/HDHm1ZvoPufaTZlB0clNskGmSm2SDSVNskGmS&#xA;k2SDTJSbJBokptkg0yUmyYceSk+SDRJZNcTuoR5GZR0VmJA+g4YxA5Bhlz5JCpSJHmULJlwdfNCy&#xA;9DlgcHIu0C39fW4qiqxEyN7cRt/w1MGqnw4j5tnYOn8XXR7o+r5cvtpn6ZoS+tQRCZAuVBi/5gXV&#xA;Le0tRT42aVvEcRxH38jmy7LhvKXweH9vdVWPFi7yZfLYfefk8r1uQNe8f99oFP4t/wAbZsp83idL&#xA;9AeY/mjd/FY2gpsHlbx3oq/xzU9oy3AfRPYzCeHJk9w/SfvD23/nF+yEPlHUJx0luEStD1WIORX2&#xA;Muax7h7NirsVdirsVdirsVdirsVdirsVdiqQfmBoTa95K1rSEXlLd2kqwLStZVXnF/w6jFXxD5Z1&#xA;BNM8y6TqMteFje29w/jSGVXP/EcIYzFgh9zHMoOgkptkg0yU2yQaSptkg0yUmyQaZKTZINElNskG&#xA;mSk2TDjyUnyQaJKLZMONJQkywOLNCy9DlgcHInvlWw9KKS7cfFOeKeyL/U5g67LZEe56r2X0PBCW&#xA;Y858vcP1n7gyRM1xe0giEyBcqDzbzJqQ1DVpZkNYU/dQn/JXv9Jqc6LSYfDxgdeb4v7Rdo/m9XKY&#xA;3gPTH3D9Zs/FgV7N613LJWoLHifYbD8MJO6McaiA8e80Xn6X80ShDWJWECMu/wAEezN9/I5z+qyc&#xA;WQl9e7A0fgaSET9UvUfj+yg+qfyCszB+X0cxFPrd1PNWlK0Ii/5lZju5ej4q7FXYq7FXYq7FXYq7&#xA;FXYq7FXYq7FXxL+cnlJvLH5hapZInCzuX+u2Ph6M5LUX2R+SfRir6Z/LHzIvmLyLpGol+dwIRBdk&#xA;kFvXg/dyE0/mK8vkcyYGw6PUQ4ZkMmbLA4klNskGkqbZINMlJskGmSk2SDRJTbJBpkpNkw48lJ8k&#xA;GiSi2TDjSUJMsDizXWNg15OFO0S7yN7eA+eDLl4B5s9DoTqMlfwDmyyFFRFRRRVACgdABmpkbe/w&#xA;xEQANgESmVlzoJF5s15ba3bT7dv9JlFJiP2EPb5sPw+jM7Q6biPGeQeU9qu3BhxnT4z+8mPV/Rif&#xA;0y+7fuefajcehaO4NHb4U+Z/p1zcTNB8408OKfuef+bdaXSdHllVqXMw9K3Hfkw+1/sRvmBqsvBC&#xA;+r13YXZ/5rUiJ+iO8vcOnx5PNtCtSWa6btVUr4nqf4ZoH1x9teQ9G/Q3k3SNOI4yQ2yNMvhLJ+8k&#xA;/wCHc4qn2KuxV2KuxV2KuxV2KuxV2KuxV2KuxV45/wA5MeSE1fylH5htk/0/RG/eUG72srBXXbrw&#xA;ajDwHLxxV5b/AM4+fmAuh66/l6/k46brDr9XY9I7v7K/ISiiH3C9q5ZjlRcLWYeKPEOYfTTZkh0s&#xA;lNskGkqbZINMlJskGmSk2SDRJTbJBpkpNkw48lJ8kGiSi2TDjSbgspJ2/lj7sf4YyyCLLBo5ZT3R&#xA;707tYY4YxHGKKPxPicwZyJNl6fTYY44iMeSMTKi7GCUa15ohs1MFmRLddCw3VPn4n2zL0+iM95bR&#xA;+957tn2mhpwceEiWXv6R/WfL59xhkkkksjSSMXdzVmO5JObkAAUHzXJklORlI3I8yxrWr5JJWqwW&#xA;CAGrE7bfaavhtlGSXydppMBAAAuUvxTxfzLrMvmDWQsBpaxkx2wOw4/tOfn1zn9Vn8SXkH2HsLsv&#xA;8ngo/wB5LeX6vh99ss/L3y8NX816PpEacoXnQzD/AIpi/eSk/wCwU5jO6fYmKuxV2KuxV2KuxV2K&#xA;uxV2KuxV2KuxV2KofULC11CwubC7jEtrdxPDPGejJIpVh9xxV8L+d/Kt75W8z3+kXFedpKVSSnHk&#xA;h+KKQf66EN7dMVfQ35MfmpD5p0xNI1SUL5hskAJY/wC9USinqrXq4H2x9Pyycc7dJrNNwGx9L0ts&#xA;uDrSptkg0yUmyQaZKTZINElNskGmSk2TDjyUnyQaJLFeNTVk5fT/AAwkEtcZxjzFokanbp1V/oA/&#xA;rlfgkuYO0sceh+z9a2TzBFGP3cTMf8ohf1csI0pPMscnb0Ij0xJ9+360l1DX9SueUXP0ojsUj2qP&#xA;c9czcWlhHfmXme0O3tTmuN8Me6O3280rzKdEl2ragIIzFGf3zjcj9lfH55XOVbOZpcPEeI8njfnf&#xA;zZ9cY6VpzcoK0uJF/bYH7C06j9eaLWari9MeT6p7OdgnFWfMPX/CO7zPn93v5FmmWH1WLk+80g+P&#xA;2H8v9c172T6J/wCcffJUlpaT+aLxOMt4pg09WG4hBBeTf+dlAHsD2OKvZMVdirsVdirsVdirsVdi&#xA;rsVdirsVdirsVdiryH/nIL8tzr2jDzDp0HqappiEXMSj4prUfEfctEfiHtXvTFXy9bXGo6Nfwalp&#xA;07wXFu4e3uENGRh2P+dCMQUSiJCjyfSX5XfnPpnmiGLTNXdLPzAoCgH4Yrk/zRdg57p93tlY8l83&#xA;Q6vRGG8d4/c9KbLw6uSk2SDTJSbJBokptkg0yUmyYceSk+SDRJRbJhxpKEmWBxZoWXocsDg5Eul/&#xA;vDmRHk6fL9RSzV9ZtdNt3klkVSoqSxoqjxY5HJkEQ5Gj0c80gIgm+7q8a82ee7nVJXs9NLejIeMk&#xA;4BEktdqKOoX8c0Wq1pltHk+r9hezMcFZM1GY5R6R/WfsH2pTpulC3pLNQzdh1C/25r3r3o35Xfl5&#xA;c+b9ZHrKyaLaMGvpxUcu4hQ/zN+A38MVfVFvbwW8EdvAixQRKEijUUVVUUAAHYDFV+KuxV2KuxV2&#xA;KuxV2KuxV2KuxV2KuxV2KuxVassTSNGrqZEALoCCyhulR2rTFXzn+dX5OjS55PMOgQctKuX/ANOs&#xA;lpSCR22ZB/vtmPT9k+3RV5JN5F1mQGTTIWu3RTJJbwgs6Ab1Hj+v54qzHyN+fuvaKE0/zDG+q2Ef&#xA;wicml5GB/lNtJTweh/ysuhmI5us1PZsZ7x9J+x7l5a89eVfM0IfR7+OaWnJ7VjwnTx5RNRtvEbe+&#xA;ZUJg8nQajS5Mf1D9SctlocGSm2SDTJSbJhx5KT5INElFsmHGkoSZYHFmg7mWOKJpJXWONAS7sQFA&#xA;Hck5YDThyiZGhuS8x81fm5oli0kOkn6/c7j1U2hU/wCsftfRtmNm7RhEVHcu67N9jdRnlx5v3cPP&#xA;6vl+unmN5feZPNFwXmYtCGJpusKn/jY7+5zT5s8sh3L6R2d2Tg0kaxx37+v48hsmNno9tYLVf3k3&#xA;eVhv8lHYZS7JlfkL8vtW84aqIbcGDToSPrt+RVEH8q/zOey/ftir6j8v+X9K0DSodL0uEQ2sI2HV&#xA;mY/ad2/aZu5xVMcVdirsVdirsVdirsVdirsVdirsVdirsVdiryb84fzz0/yjHLo+ilLzzIy0fo0V&#xA;pUfal8ZO6p9LdgVXzz5av/Od15kbXoNSuotUmfnLerIwkkJNSGpsV/yTt2pTFXqGseYtQ8w3tpb+&#xA;Y9aWG3iQF1C8U5ou5CIOJkffr8h4Yqlmqa5E1v8Ao7SojaaaPtj/AHbMR+1Kw6/6vTFWHa9p1jdO&#xA;nqIPWIPJ12em3H/M4qx6Ty5fQyLNYy8mQhk39ORTXYg9NvGoxUi2R6T+b/5laAEinumvIFqFi1GM&#xA;y19/V+CU/wDB5bHNIOvzdmYcnSj5fimZab/zkmh4LqmiEf78mtZq7+0bqP8AieXx1XeHWZewL+mX&#xA;zCdR/wDOQvkiQHnbahER/NFEa/LjKcsGrj5uDP2fz9DH5n9Tbfn75FP+673/AJEp/wBVMkNXDzaJ&#xA;ezuoPWPz/Ylt7/zkL5bWMmz028ml7LN6US/8Eryn8MTrY9Ayj7L5T9U4j3Wf1MY1L8+PM16/o6Tp&#xA;sFqX2UNzuZan+Wnpr96HKpa6XQU5uH2UwD65Sl9g/X9qQXsH5ieZiDq1xN6BNeFw3oxgr39BAKH3&#xA;4ZjTyylzLvdL2fgwf3cBHz6/PmirLyPp1rR7pzdyjsfgjHQ/ZBqfpP0ZW5iYyRoiiONQqLsqKKAD&#xA;wAGKs88j/kvq2tvHfa2H07StmERFLiYf5Kn7Cn+ZvoHfFXvWk6RpukWEVhptultaQiiRINvck9ST&#xA;3J3OKovFXYq7FXYq7FXYq7FXYq7FXYq7FXYq7FXYq8F/OT/nIKOx9fy95OnEl9vHeaxGQyReKW53&#xA;DP2L/s9t9wq8O8v+Wr3Vbo3Fzybmxd2ckliTUsxOKszur7T9DtDDb09QCjP/AExV57rGu3F7K1GI&#xA;SvXFXrP5AWmgeatTlsdcnLXljGJbeyOwuUBoxZq1Pp7VUda18cVe8+Zvy18oeYbdY7uyWCaJQkF1&#xA;bARSooFAKgcWA7BgRiryDzH+RnmjS3eXSiurWY3ASkc4HvGxof8AYsflirCJrK7tJmt7yCS3mGzw&#xA;zIyMPmrAHFUM+haPcCklpH41QcD96cTira+TvLr0/wBFK/KST+LHFURF5H8tVBNqWHgZJP4NiqY2&#xA;fk7yzA/JNPjY+EhaUfdIWGKpzFZ2lrD6drBHBGdykSqgr8lAxVR9CeeURQRtLKxosaKWYn2A3xVk&#xA;Oj/lJ5p1Rle5RdNtj1efeSntEPir/rccVemeV/yx8saA63CQ/XL9aEXdwAxUjvGtOKfPr74qy3FX&#xA;Yq7FXYq7FXYq7FXYq7FXYq7FXYq7FXYqsnngt4JJ55FhgiUvLLIQqKqipZmOwAHfFXzL+cf5/XGs&#xA;mby95RleHSyTHd6klVkufFIujJH4nq3sOqrzryv5QlunFxcjjGN9+gGKsm1bW7LSrQ29rRaCjN3O&#xA;KvOtT1We9lJZjwrsMVQGKvav+ce/yt1/Udbs/OMs0mm6Vp8vO2dRSS7YVV0Wv+6iKq7d91Hcqq+p&#xA;sVdiqF1DStM1GL0b+0hu4uyTIsgFfDkDTFWK3/5QeSLpi0dtJZs3U28rAV9lf1FH0DFUol/I7SeX&#xA;+j6nPGK7CREc0+jhiq1PyTiV6/phin8v1cV+/wBT+GKo22/J7S0I9fUJ5B34Kifr54qnFp+W3lS3&#xA;oXt3uWHQzSMfvCcFP3YqyCy03T7FOFlbRWydxEipX58QMVRGKuxV2KuxV2KuxV2KuxV2KuxV2Kux&#xA;V2KuxV2KoPWNZ0zRtNn1PVLlLSxtlLzTSGgAHYdyT2A3PbFXyf8Am1+dWr+d7p9J0n1LPy4rUWAG&#xA;klyVOzz0/Z7hOg6mppRVJPK3k/YXd58KLuSe3sMVTPX/ADLbWVube2oqLsAOpxV57fX893KXkJp2&#xA;GKoXFXsP5Lfkdc+aZIde19Gg8uo1YYDVZLwqegPVYq9W79B4hV9V29vb21vHb28aw28KiOKKMBUR&#xA;FFFVVGwAGKqmKuxV2KuxV2KuxV2KuxV2KuxV2KuxV2KuxV2KuxV2KuxV2KuxV2KuxV2KpL5v846D&#xA;5S0aXVtauBDbp8McY3klkptHEn7TH7h1NBvir5E/Mb8zfMn5hasFkrb6VE9bHTEJKJ1AeQ/tyUP2&#xA;vupiqJ8teUoLSEXl7sBvv1PsMVa8y+a44ozBb/Co2VVxVgVzdS3EheQ1J7Yqo4q9o/JT8i5/MT2/&#xA;mLzHGYvL6nnbWjVWS7I6E/yw+/Vu22+KvqaGGKGJIYUWOKNQkcaAKqqooFUDYADFV2KuxV2KuxV2&#xA;KuxV2KuxV2KuxV2KuxV2KuxV2KuxV2KuxV2KuxV2KuxV2KsR/Mb8zPL/AJF0r61qD+tfTA/UdOjI&#xA;9WZhtX/JQV+Jj+J2xV8jeavNnmjz9rxv9Tl9Rt1t7dKiGCMn7Eakmnuep74qyXQfLdnpVsLq8pzp&#xA;UKepOKpT5n82liYYT02VR0GKsKllklcu5qxxVZir278kvyKm1uS38yeZ4DHogpLY2L7NdGuzuOoi&#xA;/wCJ/wCr1VfUKIkaKiKERAFVVFAANgABireKuxVItU89+T9LJW+1e2jdftRK/qyD5pHzb8MVYtqH&#xA;58eS7clbZLu9b9lo4wiH6ZGRv+FxVILv/nIck8bHRKk/Zeafv/qKn/G2KpTd/n35xNfSsLO3Q9C0&#xA;crN49TIo6e2KpfN+cv5hyDkl3bRDfZI4D+DljiqCb82/zDkjHLXOO/2RBCp+9Yf44qozfmZ57elf&#xA;MDmn8ihPvpGuKqf/ACsjz1/1f5vvP/NOKu/5WR56/wCr/N95/wCaMVV1/Nv8w4ieGss1e5hgYf8A&#xA;Dx4qmdp+d/n2BQ0slpdAf79iUE/RE0ZxVOLP/nIPWQK3WjQTgfaMMjxf8SEuKpxaf85C6K1Prmk3&#xA;MPj6Lxy/8S9LFWQ6b+cvkG9oHvXs3bolzE6/eyB0H/BYqyzT9X0rUo/U0+8gu4+paCRZAPnxJxVF&#xA;4q7FXYq7FXYq7FXnH5s/nNo/ke1azt+N95jlWsFlWqRA9JLgggqvcL1b2G+KvlS7u/MHm/XJdS1O&#xA;d7u8uGBlnfwGwVQNlUDYAbDFWb6Xo+n6FaCWcAzUqFP6zirGPMvmuWeRo4m9vYYqxNnZ2LMak9Ti&#xA;q3FXu35IfkTJqjweZvNVuU0scZdP02Qb3PdZJV7ReCn7f+r9pV9NKqqoVQAoFABsABiqC1jWtL0a&#xA;xe+1O5S1tU6yOep/lUDdm9hviryXzL+f7kvB5dsgB0F5d7k+6xKfu5N9GKvNdb84+adbLfpTU5po&#xA;26wcuEX/ACKTin4Yqk1VB2Fd++23yH9cVa5GlNvHpv8AfirmZmNWJJ8TvirWKuxV2KuxV2KuxV2K&#xA;uxV2Kt8m48anj1p2xVstWtQKn6Kfdiq+CeaCUS20rwyqao6MVYfJhTFWceXPzm846S6pdzDVbQH4&#xA;orreSn+TMPjr/rcsVe1eTPP+g+a7ctZOYryMVnsZaCRR05Cn2lr+0PppirJcVdirsVeNfnJ+fVr5&#xA;bE2heWpEudf3S4uhR4rQ9CO4eUfy9F/a8MVfN9hpuqa/qMl1cySTzXDmSe4kJZ3ZjUsWO5rirPre&#xA;207y/ZjZTcAf8DirCfMPmae7lZI2NO5xVjpJJqdycVaxV77+R35EvePB5n82WxWzWkmm6XKKGY9V&#xA;mmU/7r/lU/a6n4ftKvpMAAUHTFXYq+ZfzV8xarq3m+/trt2W206eS2tLfoqqjcedPF6cicVYev2u&#xA;304q0a1NevfFWsVdirsVdirsVdirsVdirsVdirsVdirsVdirsVXH7IPff7sVTLyzrV1omvWOp2xb&#xA;nbyqzKvV0rR0/wBktRir64xVzMqqWYgKBUk7AAYq+dvzl/5yCr6/l3ybPt8UV9rMZ69Q0dsR/wAn&#xA;B/sfHFXi/l/y1dancB5FPAmpJ6n3OKs7ln07QbP04eJmA+J/D5Yq8/1vX572VgrHhXc4qkuKuxV9&#xA;C/kZ+RLO0HmnzZbERgiTTNKmWhYjdZp1Pb+VD16nbqq+i8VdirsVea/mb+Uy+YJW1fRysOrkfv4X&#xA;NEn4igNf2XoKeB7064q8I1TStS0q9ey1G2e1uo/tRSChp2I7EHsRscVQvI99x74q38PuNvnv+GKu&#xA;41IAINR40p99MVcEcgkKSB1IG2KrcVdirsVdirsVdirsVdirsVdiq7iw6im1d9tvpxV3wj3/AFYq&#xA;1ir0X8pvy7vtY1a21m+haLR7NxMjOCPXkQ1VUr1UMPiPTtir6AvLy0srWW7vJkt7WBS808rBURV3&#xA;JZjsBir5a/OL8+bzzM02heW3e10CpSe5FUmux3BGxSI/y9W/a/lxVgflnylPeyLNOtIxvQ9B88VZ&#xA;bqOq2GjWhgtqBgKM/c4q871bWZ76VqseH68VS3FXYq+jfyL/ACL9L6v5r812/wC92l0vS5R9nus8&#xA;6n9ruiHp1O/RV9B4q7FXYq7FWndI0LuwRFFWZjQAe5OKsI8567+VV9bm08w3tpccNlMRaWaMn+Vo&#xA;A7r/AJ1xV5Tq/knyLMr3Pl/zZbCOnJbW/wCUbD2DhQx+Xp4qwWeIQzPEJElCGnqRklW9wSBtiqni&#xA;rsVXiWULwDsEPVamn3Yq36z8OFFp48Fr99K4qu9aLjx9BK93Bfl+LEfhirbPYmOiwyiT+YyqR93p&#xA;j9eKqGKrwYqbqxPchgP4Yq5jHT4VIPiSD/AYq0rADdA3zr/AjFXKxU1FPpAP68VcvM/AtTyNOI7n&#xA;5YqnWmeR/N+p0+paRdSI3SRozHGf9nJxX8cVZlo/5Ceaboq2pXNvp0Z+0oJnlH+xSif8Pir0Ly/+&#xA;S/k3SmSW5ifVLld+V0QYwfaJaLT/AFuWKs7RFRQiAKqgBVAoAB0AGKvl/wDNXzxfedrk2azzWmgw&#xA;OfRs4mCiUg7STbHkdqqOi/PfFWC6P5XsI71TNPVK/DzFKfSMVTvW/MNpp1sbe1oqgUqOpxV53qGp&#xA;T3spZyePYYqg8VbArsOuKvpT8i/yL+o/V/NXmq3/ANO2k0zTJB/c91mmU/7s7qp+z1PxfZVe94qo&#xA;3d9ZWcRlvLiO2iHWSZ1RfvYgYqxTVPzb8hafyB1IXUg6R2qtLX5OB6f/AA2KsP1T/nIa1Wq6VpDy&#xA;fyy3UgSnzjj51/4PFWIar+dXnu+5LDcxWEbfs20QrT/Wk9Rh9BxViOo63rOpty1G+uLs9f38ryU+&#xA;QYmmKoHFU00nyv5j1cj9G6bcXSn/AHYkbcPpc0UffirNdI/Ifzfd0e/kt9OQ/aV39WQf7GOqf8Pi&#xA;r17y15F0nSNMFncwWl9N0e5+pwws60AowUNX6cVVLz8vfJF4SZtEtAT1McYiJr7x8MVSm4/Jj8vZ&#xA;QeGnvAT3jnm/43dhiqW3H5B+S5KmOe+gO9AssZG/T7UbHb54qgpP+ce/L5p6WqXa+PIRt+oLiqz/&#xA;AKF60b/q7XH/ACLTFXf9C9aN/wBXa4/5Fpiq+P8A5x70AV9XVLtvDisa/rDYqi4fyB8mpQyXV/Ia&#xA;bgyRAV+iKv44qj7f8kvIEVPUtZrilP7yeQVp/wAYymKptaflp5Dtaelols1P9+gzeH+/S/hiqeWW&#xA;laXYillZwWo6UhjSP/iIGKorFXYq7FXYq+V/zA8rS+W/M91Y8CLR2M1i/ZoXJKgf6v2T8sVY3iqU&#xA;69pJvIvVhr68Y+x2ceHz8MVYjireKvX/AMprXyJ5YKeYfMgk1LWh8VhpkMXJLfwkkaQojSeFKhf9&#xA;b7Kr0PVP+chb96rpekxQ/wAslzI0h+fBBHT/AILFWH6p+bHn3Uah9Ue2jP7FqFhp8nQc/wDhsVYt&#xA;c3d1dSma6mknlPWSVi7H6WJOKqOKo3TdF1jVH4adZT3jA0IgjaSnzKg0+nFWZ6R+SHne+4tcxw6d&#xA;EdybiQFqf6kfM19jTFWa6R/zj7osNH1XUZ7thuY4FWBK+BJ9RiPkRirNtI/L3yXpPE2ekweou4ml&#xA;X1pAfENLzI+jFWQgACg2A6DFXYq7FXYq7FXYq7FXYq7FXYq7FXYq7FXYq7FXYq7FXYqxrz75IsfN&#xA;mjm1lIivoKvY3RH2HPUGn7DUow+ntir5m1nRtS0bUZtO1GEwXUJoyHoR2ZT3U9iMVQOKsS8x2Xo6&#xA;h6iD4bgcqD+etG/riqZaHoQgC3N0tZzukZ/Y9z/lYqneKq9nYX17KIbO3luZj0jhRpG+5QTirMNI&#xA;/Jvz5qNGeyWxib/dl24T/hF5yf8AC4qzXSP+ce7RaNq+qvIf2orRAg/5GSc6/wDA4qzXSPyt8i6X&#xA;xaLS455V/wB23VZySO9HJQfQuKspiiiijWOJFjjUUVFACgewGKrsVdirsVdirsVdirsVdirsVdir&#xA;sVdirsVdirsVdirsVdirsVdirsVdirH/ADh5I0PzVZCDUIys8Vfq13HQSxk+BPVT3U4q8h1X8hPN&#xA;VvORp1zb3tuT8Lsxhk/2SkMv3McVTLSv+cc4Z4IrnXNQMeoIT6cdsoeONT1qXA5N+r3xVNF/5x60&#xA;TkOWrXJWvxAJGCR7HfFWSaR+T/kPTaMbA3sq/wC7LtzLX5oOMf8AwuKsutLOzs4RBaQR28K/ZiiR&#xA;UUfJVAGKq2KuxV2KuxV2KuxV2KuxV2KuxV2KuxV2KuxV2KuxV2KuxV2KuxV2KuxV2KuxV2Kv/9k=</xapGImg:image>
               </rdf:li>
            </rdf:Alt>
         </xap:Thumbnails>
      </rdf:Description>
      <rdf:Description rdf:about=""
            xmlns:xapMM="http://ns.adobe.com/xap/1.0/mm/"
            xmlns:stRef="http://ns.adobe.com/xap/1.0/sType/ResourceRef#">
         <xapMM:DocumentID>uuid:BD99DC599DBFDE11A005AE95A54DAE42</xapMM:DocumentID>
         <xapMM:InstanceID>uuid:BE99DC599DBFDE11A005AE95A54DAE42</xapMM:InstanceID>
         <xapMM:DerivedFrom rdf:parseType="Resource">
            <stRef:instanceID>uuid:e815f905-14b7-465b-b611-6178d9b4deb0</stRef:instanceID>
            <stRef:documentID>uuid:301769B769A8DE11A5DB8AB175526BBD</stRef:documentID>
         </xapMM:DerivedFrom>
      </rdf:Description>
   </rdf:RDF>
</x:xmpmeta>
                                                                                                    
                                                                                                    
                                                                                                    
                                                                                                    
                                                                                                    
                                                                                                    
                                                                                                    
                                                                                                    
                                                                                                    
                                                                                                    
                                                                                                    
                                                                                                    
                                                                                                    
                                                                                                    
                                                                                                    
                                                                                                    
                                                                                                    
                                                                                                    
                                                                                                    
                                                                                                    
                           
<?xpacket end="w"?>
	</metadata>
<g transform="matrix(1.0 0.0 0.0 1.0 144.1 106.1)">
	<path fill="#666666" d="M-8.143,33.21h0.575h2.658l2.872,0.072l3.589,0.071l5.532,0.287l10.983,1.007l4.238,0.574
		c11.106,1.724,17.735,4.069,19.893,7.038l0.07,0.144l0.288,0.646l0.718,1.867c-0.525,1.581-1.03,2.61-1.509,3.088l-1.651,1.581
		l-2.585,1.363l-1.363,0.503c-4.74,1.628-10.773,2.896-18.099,3.807L7.584,56.26l-14.936,0.574h-0.431l-28.869-3.591
		c-17.185-2.872-24.651-6.198-22.402-9.98l0.429-0.576l1.94-1.579l4.309-2.011c4.165-1.58,9.358-2.824,15.583-3.734l19.243-1.795
		L-8.143,33.21z"/>
	<path fill="#666666" d="M-7.568,33.21h-0.575h-0.933h-2.298l-8.688,0.359l-16.73,1.795c-6.225,0.91-11.418,2.154-15.583,3.734
		l-4.309,2.011l-1.94,1.579l-0.429,0.576c-2.249,3.782,5.217,7.108,22.402,9.98l25.494,3.591h3.375h0.431L7.584,56.26l10.482-1.005
		c7.325-0.91,13.358-2.178,18.099-3.807l1.363-0.503l2.585-1.363l1.651-1.581c0.479-0.478,0.983-1.507,1.509-3.088l-0.718-1.867
		l-0.288-0.646l-0.07-0.144c-2.157-2.969-8.786-5.314-19.893-7.038l-4.238-0.574L7.083,33.639l-5.532-0.287l-3.589-0.071
		L-4.91,33.21H-7.568z M-43.974,62.435l-70.373,18.384h-0.146l-5.743,0.144l-2.011-0.216l-5.529-1.221l-5.458-1.795
		c-1.149-0.575-1.651-1.005-1.51-1.293l0.575-0.43l75.473-17.665l2.154,0.359l1.363,0.144l1.366,0.287l4.092-0.79l-4.309-1.293
		l-2.153-0.718l-2.728-1.149l-2.729-1.507l-0.789-0.648l-1.007-0.573c-2.681-1.437-4.5-2.945-5.458-4.525l-0.572-1.794
		c-0.095-0.959,0.239-1.916,1.006-2.873l2.369-2.227c1.292-0.91,2.993-1.795,5.1-2.657c9.335-4.069,23.099-6.606,41.29-7.612
		l11.92-0.43h3.087l3.446,0.072l4.309,0.07l6.535,0.36l18.096,2.227c13.163,2.346,21.041,5.529,23.626,9.55l0.07,0.215l0.432,0.862
		l0.789,2.585c-0.622,2.154-1.221,3.566-1.794,4.237l-2.011,2.083l-3.017,1.938l-1.651,0.646
		c-8.184,3.208-19.484,5.409-33.894,6.607c-11.154,0.862-21.998,0.981-32.528,0.359l-10.63-0.934l-2.873-0.359l-5.313-0.719
		l-0.144-0.072h-0.144l-4.811,1.006c0.765,0.239,1.462,0.525,2.083,0.862L-43.974,62.435z"/>
	<path fill="#666666" d="M-44.117,61.934l0.717,0.358l-0.573,0.143L-44.117,61.934z"/>
</g>
<g transform="matrix(1.0 0.0 0.0 1.0 78.9 40.45)">
	<path fill="#33CCCC" d="M97.773-7.992l0.288,0.575l1.867,4.236c0.91,1.627,1.412,3.064,1.509,4.309l1.146,5.242
		c1.39,7.804,0.958,15.319-1.292,22.548c-1.484,4.691-3.758,9.358-6.821,14.002c-6.99,10.149-16.468,17.33-28.436,21.542
		c8.234-4.308,15.031-10.341,20.392-18.095c3.065-4.644,5.339-9.312,6.821-14.004c2.251-7.228,2.684-14.744,1.295-22.547
		l-1.148-5.243c-0.098-1.244-0.6-2.681-1.509-4.308l-1.866-4.238l-0.288-0.573c-2.155-3.208-5.841-7.038-11.059-11.49
		c-8.09-6.894-20.059-10.317-35.903-10.27c-6.846,0-13.262,1.005-19.245,3.016c8.186-4.356,17.28-6.51,27.286-6.462
		c15.849-0.048,27.813,3.375,35.904,10.268C91.934-15.03,95.619-11.201,97.773-7.992z"/>
	<path fill="#333333" d="M98.061-7.417l-0.288-0.575c-2.011-3.733-4.501-7.157-7.466-10.268c-2.778-2.92-5.962-5.481-9.554-7.685
		c-13.02-8.521-27.478-11.082-43.373-7.682C20.865-30.277,8.371-21.708-0.101-7.92l-1.653,2.872l-2.228,4.453
		C-5.368,2.612-6.347,5.868-6.922,9.17l-0.289,1.365l0.503-0.073l0.933,5.673c-0.239,3.063-0.31,5.961-0.214,8.689
		c0.192,4.596,0.933,8.665,2.228,12.208c0.572,1.627,1.29,3.16,2.152,4.596l2.873,4.595C6.336,53.5,13.421,59.149,22.518,63.17
		c3.638,1.58,7.325,2.777,11.06,3.591c9.476,2.106,19.219,1.675,29.225-1.292l3.232-1.006C78.003,60.25,87.48,53.069,94.471,42.92
		c3.063-4.644,5.337-9.311,6.821-14.002c2.25-7.229,2.682-14.745,1.292-22.548l-1.146-5.242c-0.097-1.245-0.599-2.682-1.509-4.309
		L98.061-7.417z M-1.61,41.628h-0.073H-1.61z M107.973,14.699l-0.505,5.027c-0.813,6.367-2.249,11.776-4.309,16.228l-3.376,6.319
		l-1.651,2.586c-8.281,12.017-19.724,20.202-34.324,24.56c-9.813,2.872-19.389,3.566-28.725,2.081l-1.505-0.286
		c-4.597-0.862-9.119-2.275-13.574-4.237l-2.941-1.365l-2.371-1.221l-0.502-0.287h-0.145l-0.432-0.287l-0.358-0.215l-0.862-0.431
		l-0.215-0.144l-2.8-1.795l-0.504-0.43c-4.881-3.4-8.975-7.445-12.277-12.136l-1.653-2.442l-1.508-2.441l-1.006-1.939
		c-2.682-5.361-4.499-11.035-5.457-17.019c-0.336-2.203-0.526-4.357-0.575-6.462c-0.095-3.639,0.238-7.253,1.006-10.843
		c0.576-2.728,1.365-5.434,2.369-8.115c1.294-3.398,2.994-6.75,5.099-10.054c9.336-15.127,23.099-24.534,41.291-28.221
		c4.021-0.909,7.994-1.412,11.921-1.507l3.087-0.072l3.447,0.215l4.31,0.431l6.533,1.365c6.318,1.627,12.351,4.333,18.094,8.115
		c13.167,8.664,21.041,20.536,23.627,35.617l0.07,0.576l0.434,3.446L107.973,14.699z M9.377,61.231h0.071H9.377z M12.178,63.027
		l-0.072-0.072L12.178,63.027z"/>
	
		<linearGradient id="XMLID_10_" gradientUnits="userSpaceOnUse" x1="1535.578" y1="-5002.1362" x2="3890.624" y2="-5002.1362" gradientTransform="matrix(0.054 0 0 -0.0352 -122.8398 -155.1913)">
		<stop  offset="0" style="stop-color:#FFFFFF"/>
		<stop  offset="0.9961" style="stop-color:#66FFFF"/>
	</linearGradient>
	<path fill="url(#XMLID_10_)" d="M66.035,64.463l-3.232,1.006c-10.006,2.968-19.749,3.398-29.225,1.292
		c-3.734-0.814-7.422-2.011-11.06-3.591C13.421,59.149,6.336,53.5,1.263,46.223l-2.946-4.595c-0.812-1.436-1.506-2.969-2.079-4.596
		c-1.295-3.542-2.035-7.611-2.228-12.208c-0.095-2.728-0.024-5.625,0.214-8.689C-4.914,10.2-3.022,4.623-0.101-0.596
		c2.583-4.596,6.006-8.928,10.269-12.998c4.164-3.973,8.616-7.205,13.356-9.694c5.983-2.011,12.399-3.016,19.245-3.016
		c15.845-0.047,27.813,3.375,35.903,10.27c5.218,4.452,8.903,8.281,11.059,11.49l0.288,0.573l1.866,4.238
		c0.909,1.627,1.411,3.063,1.509,4.308l1.148,5.243c1.389,7.803,0.956,15.319-1.295,22.547c-1.482,4.692-3.756,9.36-6.821,14.004
		C81.066,54.122,74.269,60.154,66.035,64.463z M-1.683,41.628h0.073H-1.683z M56.482-1.242c0-2.107-0.907-3.901-2.727-5.386
		c-1.821-1.483-4.021-2.226-6.607-2.226s-4.786,0.742-6.607,2.226c-1.817,1.485-2.727,3.279-2.727,5.386s0.909,3.901,2.727,5.385
		c1.821,1.483,4.021,2.226,6.607,2.226s4.786-0.743,6.607-2.226C55.575,2.659,56.482,0.865,56.482-1.242z M51.384-17.903
		c5.269,1.437,9.934,4.382,14.005,8.833c6.127,6.704,9.192,14.77,9.192,24.2c0,9.479-3.065,17.545-9.192,24.2
		c-4.071,4.452-8.736,7.445-14.005,8.977l8.332,1.077c8.712,0,16.154-3.351,22.333-10.054c6.126-6.654,9.191-14.721,9.191-24.2
		c0-9.43-3.065-17.497-9.191-24.2c-6.179-6.701-13.621-10.052-22.333-10.052C56.794-19.122,54.018-18.716,51.384-17.903z
		 M57.561,16.207c0-1.436-0.529-2.68-1.581-3.734c-1.005-1.005-2.225-1.507-3.661-1.507s-2.683,0.502-3.735,1.507
		c-1.004,1.054-1.509,2.298-1.509,3.734c0,1.437,0.505,2.657,1.509,3.663c1.053,1.053,2.299,1.579,3.735,1.579
		s2.656-0.525,3.661-1.579C57.032,18.864,57.561,17.643,57.561,16.207z"/>
	
		<linearGradient id="XMLID_11_" gradientUnits="userSpaceOnUse" x1="2747.9785" y1="-3904.3093" x2="5102.1089" y2="-3904.3093" gradientTransform="matrix(0.0397 0 0 -0.0317 -119.0157 -133.2395)">
		<stop  offset="0" style="stop-color:#333333"/>
		<stop  offset="0.6863" style="stop-color:#979797"/>
		<stop  offset="0.9961" style="stop-color:#575757"/>
	</linearGradient>
	<path fill="url(#XMLID_11_)" d="M-5.775,16.135l-0.933-5.673l-0.503,0.073l0.289-1.365c0.575-3.302,1.554-6.558,2.941-9.766
		l2.228-4.453l1.653-2.872c8.473-13.788,20.966-22.357,37.482-25.707c15.896-3.4,30.354-0.839,43.373,7.682
		c3.592,2.203,6.775,4.764,9.554,7.685c2.965,3.111,5.455,6.535,7.466,10.268c-2.154-3.208-5.839-7.038-11.059-11.49
		C78.624-26.375,66.659-29.798,50.81-29.75c-10.006-0.048-19.101,2.106-27.286,6.462c-4.74,2.489-9.192,5.721-13.356,9.694
		C5.905-9.524,2.482-5.192-0.101-0.596C-3.022,4.623-4.914,10.2-5.775,16.135z"/>
	
		<linearGradient id="XMLID_12_" gradientUnits="userSpaceOnUse" x1="2454.9316" y1="-5127.4653" x2="4809.6943" y2="-5127.4653" gradientTransform="matrix(0.0428 0 0 -0.0309 -116.2139 -111.4675)">
		<stop  offset="0" style="stop-color:#333333"/>
		<stop  offset="0.6863" style="stop-color:#979797"/>
		<stop  offset="0.9961" style="stop-color:#575757"/>
	</linearGradient>
	<path fill="url(#XMLID_12_)" d="M107.468,19.726l0.505-5.027l0.501,4.093c-0.623,7.996-1.223,13.285-1.796,15.87l-2.011,7.685
		c-0.765,2.584-1.771,4.93-3.016,7.037l-1.65,2.584c-8.188,11.825-19.485,19.94-33.896,24.344
		c-11.153,3.351-21.995,3.83-32.527,1.437c-3.593-0.861-7.133-2.011-10.629-3.447l-2.873-1.292l-5.312-2.803l-0.146-0.144
		l1.725-1.507v-0.144v-0.215l-0.144-0.862l-0.505-1.939l-1.003-1.005l2.371,1.221l2.941,1.365c4.455,1.962,8.978,3.375,13.574,4.237
		l1.505,0.286c9.336,1.485,18.911,0.791,28.725-2.081c14.601-4.358,26.043-12.543,34.324-24.56l1.651-2.586l3.376-6.319
		C105.219,31.502,106.654,26.093,107.468,19.726z M16.343,68.556h0.071H16.343z M14.618,70.063h-0.07H14.618z M-6.565,43.782
		l1.508,2.441l1.653,2.442c3.303,4.691,7.396,8.736,12.277,12.136l0.575,0.43c-0.526,0.192-1.077,0.527-1.651,1.006l-1.65,1.364
		l-4.309-4.668l-2.156-2.8l-2.728-4.309l-2.729-5.602L-6.565,43.782z M9.448,61.231H9.377H9.448z M13.255,63.601l0.358,0.215
		l-0.431-0.072L13.255,63.601z"/>
	
		<linearGradient id="XMLID_13_" gradientUnits="userSpaceOnUse" x1="-1503.7594" y1="68.6994" x2="849.3524" y2="68.6994" gradientTransform="matrix(-8.000000e-004 -0.0015 -0.0038 0.0044 -157.6915 -107.6775)">
		<stop  offset="0" style="stop-color:#737373"/>
		<stop  offset="0.6863" style="stop-color:#CBCBCB"/>
		<stop  offset="0.9961" style="stop-color:#A0A0A0"/>
	</linearGradient>
	<path fill="url(#XMLID_13_)" d="M14.691,64.391l1.003,1.005l0.505,1.939l0.144,0.862v0.215l0.071,0.144l-1.866,1.507l-4.884,3.591
		l-1.867-2.298l-1.58-1.579l-0.431-0.432l5.244-4.38l0.358-0.287l1.078-0.719l0.214-0.143l0.287-0.072h0.214l0.431,0.072
		l0.432,0.287h0.145L14.691,64.391z M5.786,69.275h0.073H5.786z M16.414,68.556h-0.071H16.414z M14.548,70.063l-0.072,0.073
		L14.548,70.063z M12.968,63.745l0.073,0.072L12.968,63.745z"/>
	
		<linearGradient id="XMLID_14_" gradientUnits="userSpaceOnUse" x1="-1503.7052" y1="64.822" x2="849.3229" y2="64.822" gradientTransform="matrix(-8.000000e-004 -0.0015 -0.0038 0.0044 -160.1915 -109.3772)">
		<stop  offset="0" style="stop-color:#737373"/>
		<stop  offset="0.6863" style="stop-color:#CBCBCB"/>
		<stop  offset="0.9961" style="stop-color:#A0A0A0"/>
	</linearGradient>
	<path fill="url(#XMLID_14_)" d="M12.105,62.955v0.072l-3.59,2.585l-3.734,2.801l-0.215-0.144L4.063,67.91l-2.011-1.437l4.094-2.872
		l1.65-1.364c0.575-0.479,1.101-0.814,1.581-1.006L12.105,62.955z M4.566,68.269l-0.071-0.072L4.566,68.269z"/>
	<path fill="#CCCCCC" d="M12.105,63.027h0.072l0.215,0.144l0.862,0.503l-0.214,0.144h-0.36l-0.214,0.143l-1.078,0.719l-0.358,0.287
		l-5.171,4.31l-0.288-0.215l-0.791-0.646l3.734-2.801L12.105,63.027z M13.255,63.673h-0.073l-0.141,0.072h0.141L13.255,63.673z"/>
	
		<linearGradient id="XMLID_15_" gradientUnits="userSpaceOnUse" x1="-1503.5138" y1="-1.2425" x2="849.2252" y2="-1.2425" gradientTransform="matrix(-0.0069 0 0 0.0065 -130.3238 -152.1534)">
		<stop  offset="0" style="stop-color:#FFFFFF"/>
		<stop  offset="0.9961" style="stop-color:#66FFFF"/>
	</linearGradient>
	<path fill="url(#XMLID_15_)" d="M53.756-6.628c1.819,1.485,2.727,3.279,2.727,5.386s-0.907,3.901-2.727,5.385
		c-1.821,1.483-4.021,2.226-6.607,2.226s-4.786-0.743-6.607-2.226c-1.817-1.484-2.727-3.278-2.727-5.385s0.909-3.901,2.727-5.386
		c1.821-1.483,4.021-2.226,6.607-2.226S51.934-8.112,53.756-6.628z"/>
	
		<linearGradient id="XMLID_16_" gradientUnits="userSpaceOnUse" x1="-8204.0371" y1="-4789.083" x2="-5850.0088" y2="-4789.083" gradientTransform="matrix(-0.0268 0 0 -0.0291 -128.6281 -124.2314)">
		<stop  offset="0" style="stop-color:#FFFFFF"/>
		<stop  offset="0.9961" style="stop-color:#66FFFF"/>
	</linearGradient>
	<path fill="url(#XMLID_16_)" d="M65.389-9.07c-4.071-4.451-8.736-7.396-14.005-8.833c2.635-0.813,5.41-1.22,8.332-1.22
		c8.712,0,16.154,3.351,22.333,10.052c6.126,6.704,9.191,14.77,9.191,24.2c0,9.479-3.065,17.545-9.191,24.2
		c-6.179,6.703-13.621,10.054-22.333,10.054l-8.332-1.077c5.269-1.532,9.934-4.524,14.005-8.977
		c6.127-6.654,9.192-14.721,9.192-24.2C74.581,5.7,71.516-2.367,65.389-9.07z"/>
	
		<linearGradient id="XMLID_17_" gradientUnits="userSpaceOnUse" x1="-1504.0817" y1="16.2067" x2="849.516" y2="16.2067" gradientTransform="matrix(-0.003 0 0 0.0045 -125.8985 -138.9251)">
		<stop  offset="0" style="stop-color:#FFFFFF"/>
		<stop  offset="0.9961" style="stop-color:#66FFFF"/>
	</linearGradient>
	<path fill="url(#XMLID_17_)" d="M55.98,12.473c1.052,1.054,1.581,2.298,1.581,3.734c0,1.437-0.529,2.657-1.581,3.663
		c-1.005,1.053-2.225,1.579-3.661,1.579s-2.683-0.525-3.735-1.579c-1.004-1.006-1.509-2.227-1.509-3.663
		c0-1.436,0.505-2.68,1.509-3.734c1.053-1.005,2.299-1.507,3.735-1.507S54.975,11.468,55.98,12.473z"/>
	
		<linearGradient id="XMLID_18_" gradientUnits="userSpaceOnUse" x1="58368.707" y1="357.9919" x2="60719.7656" y2="357.9919" gradientTransform="matrix(0.0026 0.0029 0.0305 -0.0269 -199.6263 -62.4203)">
		<stop  offset="0" style="stop-color:#333333"/>
		<stop  offset="0.4157" style="stop-color:#979797"/>
		<stop  offset="0.9608" style="stop-color:#333333"/>
	</linearGradient>
	<path fill="url(#XMLID_18_)" d="M-77.08,128.229l74.248-64.484l2.156,1.077c2.681,1.293,3.136,1.532,1.364,0.718l1.364,0.933
		l2.011,1.437l0.432,0.288l0.286,0.215l0.791,0.646l0.214,0.286l0.431,0.432l1.58,1.579l1.867,2.298l2.083,3.232l0.72,1.292
		l-70.949,68.937c1.149-1.197,1.171-3.159,0.071-5.888c-1.101-2.633-2.99-5.194-5.672-7.684c-1.724-1.627-3.423-2.896-5.098-3.805
		c-1.003-0.576-2.011-1.03-3.017-1.366L-77.08,128.229z M5.859,69.275H5.786l-0.288-0.215L5.859,69.275z M4.495,68.197l0.071,0.072
		L4.495,68.197z"/>
	<path fill="#666666" d="M-64.372,147.546l-2.01-0.791c-1.196-0.478-3.039-1.938-5.529-4.38c-2.537-2.442-4.355-4.715-5.456-6.822
		c-1.149-2.107-1.653-3.662-1.509-4.668c0.048-0.622,0.239-1.148,0.574-1.58l1.222-1.077l4.881,0.143
		c1.005,0.336,2.013,0.79,3.017,1.366c1.675,0.909,3.375,2.178,5.098,3.805c2.683,2.489,4.572,5.05,5.672,7.684
		c1.1,2.729,1.078,4.691-0.071,5.888h-0.071C-59.751,148.36-61.689,148.504-64.372,147.546z M-58.554,147.114l-0.072,0.073
		L-58.554,147.114z"/>
</g>
</svg>
